<?xml version="1.0" encoding="UTF-8" standalone="no"?>
<!-- Created with Inkscape (http://www.inkscape.org/) -->

<svg
   xmlns:dc="http://purl.org/dc/elements/1.1/"
   xmlns:cc="http://creativecommons.org/ns#"
   xmlns:rdf="http://www.w3.org/1999/02/22-rdf-syntax-ns#"
   xmlns:svg="http://www.w3.org/2000/svg"
   xmlns="http://www.w3.org/2000/svg"
   xmlns:sodipodi="http://sodipodi.sourceforge.net/DTD/sodipodi-0.dtd"
   xmlns:inkscape="http://www.inkscape.org/namespaces/inkscape"
   width="210mm"
   height="297mm"
   viewBox="0 0 744.09448819 1052.3622047"
   id="svg2"
   version="1.1"
   inkscape:version="0.91 r13725"
   sodipodi:docname="gravure-chibi-link-watch-u-2-nintendo-geel-4.svg">
  <title
     id="title3347">Chibi Link Watch u 2</title>
  <defs
     id="defs4" />
  <sodipodi:namedview
     id="base"
     pagecolor="#ffffff"
     bordercolor="#666666"
     borderopacity="1.0"
     inkscape:pageopacity="0.0"
     inkscape:pageshadow="2"
     inkscape:zoom="0.35"
     inkscape:cx="435.42862"
     inkscape:cy="209.30615"
     inkscape:document-units="px"
     inkscape:current-layer="layer1"
     showgrid="false"
     inkscape:window-width="1531"
     inkscape:window-height="877"
     inkscape:window-x="-8"
     inkscape:window-y="-8"
     inkscape:window-maximized="1" />
  <metadata
     id="metadata7">
    <rdf:RDF>
      <cc:Work
         rdf:about="">
        <dc:format>image/svg+xml</dc:format>
        <dc:type
           rdf:resource="http://purl.org/dc/dcmitype/StillImage" />
        <dc:title>Chibi Link Watch u 2</dc:title>
      </cc:Work>
    </rdf:RDF>
  </metadata>
  <g
     inkscape:label="Calque 1"
     inkscape:groupmode="layer"
     id="layer1">
    <path
       style="fill:#000000"
       d="m 426.09916,1014.8224 c -5.98048,-0.165 -16.27292,-0.3282 -22.8721,-0.3627 -6.59916,-0.034 -13.43267,-0.2604 -15.18556,-0.5019 -1.75291,-0.2416 -8.08023,-0.734 -14.06073,-1.0942 -5.98048,-0.3602 -14.07947,-1.0404 -17.99772,-1.5112 -3.91826,-0.4708 -9.72494,-0.9788 -12.90375,-1.1289 -9.71449,-0.4584 -17.10099,-1.4287 -37.33989,-4.9051 -6.39294,-1.0981 -14.57629,-2.5001 -18.1852,-3.1155 -10.14785,-1.7306 -27.98081,-5.72427 -35.24553,-7.89317 -12.12606,-3.62024 -27.39899,-9.07191 -41.05731,-14.6554 -4.53692,-1.85466 -9.34569,-3.79431 -10.68614,-4.31027 -5.00303,-1.92573 -25.62396,-14.65831 -30.98406,-19.1314 -3.49107,-2.91338 -6.27477,-6.08684 -8.78448,-10.01451 -5.10862,-7.99496 -7.71275,-16.89743 -7.40557,-25.31666 0.12201,-3.3441 0.33844,-4.46618 1.35544,-7.02756 1.77637,-4.47378 4.0252,-7.9419 8.20611,-12.65534 5.53423,-6.23909 15.48556,-14.33509 23.35657,-19.00197 l 3.06024,-1.81448 -4.8456,-6.05916 c -10.60177,-13.25692 -12.47488,-15.75134 -12.27929,-16.35242 0.10953,-0.33667 0.19919,-2.10945 0.19919,-3.93952 0,-2.69535 0.10127,-3.28153 0.53335,-3.08601 0.38757,0.17537 0.60584,-0.26467 0.79858,-1.61005 0.21518,-1.50191 0.77929,-2.47754 2.98836,-5.16843 2.31863,-2.82433 3.11094,-4.23643 5.33436,-9.5073 1.43621,-3.40468 3.05958,-7.79087 3.60749,-9.7471 1.42501,-5.08777 3.96849,-9.93201 7.3064,-13.91561 6.11662,-7.29979 11.54306,-10.04656 24.42577,-12.36386 4.2087,-0.75708 6.32612,-1.39574 9.37381,-2.82743 l 3.93701,-1.84949 1.03376,-2.54626 c 1.01031,-2.48846 1.11243,-2.58954 4.49944,-4.45389 6.16571,-3.39392 6.50176,-2.78997 -5.40367,-9.71145 -5.63929,-3.27857 -14.04964,-8.3747 -18.68969,-11.32478 l -8.43643,-5.36378 -4.18271,-4.90494 -4.18271,-4.90493 -0.42792,-3.45102 -0.42791,-3.45105 2.11239,-9.64182 c 1.96903,-8.98732 5.01792,-21.28057 8.25828,-33.29762 1.46882,-5.4472 2.77072,-10.95972 2.78118,-11.77609 0.003,-0.27547 -1.09525,-1.45464 -2.4417,-2.62041 -5.86158,-5.07482 -10.75999,-16.29782 -13.12482,-30.07087 -0.50873,-2.96304 -0.925,-5.67396 -0.925,-6.02433 0,-0.63552 9.39956,-14.59896 11.90002,-17.67799 1.02165,-1.25804 2.17367,-1.97298 5.11428,-3.17391 2.08756,-0.85253 5.18759,-2.17872 6.88893,-2.94707 l 3.09336,-1.39702 0.003,-1.61939 c 0.005,-2.9324 0.75726,-7.33345 1.60288,-9.37912 l 0.83149,-2.01155 -1.95087,-1.69071 c -4.84833,-4.20166 -14.11565,-16.58375 -21.5366,-28.7751 -3.15495,-5.18302 -11.33101,-19.68785 -12.33734,-21.88718 -0.34265,-0.74889 -0.55419,-3.38726 -0.65586,-8.18006 l -0.15006,-7.07465 -1.21636,-1.54758 -1.21636,-1.54757 -1.06973,-19.94653 -1.06974,-19.94648 -4.14541,-0.2614 c -7.69793,-0.48537 -16.68167,-3.12102 -28.51733,-8.36635 -7.8223,-3.4667 -8.29366,-3.76888 -15.52712,-9.95313 l -6.1533,-5.2608 -2.47061,0.8093 c -11.46536,3.75574 -29.742068,6.04351 -43.902846,5.49545 -8.949085,-0.34635 -21.728891,-1.87227 -22.41028,-2.67581 -0.103814,-0.12244 2.198821,-5.41259 5.116972,-11.75589 l 5.305735,-11.53329 2.82496,-11.80454 c 1.553742,-6.4925 3.221521,-13.29686 3.706188,-15.12079 0.484668,-1.82393 0.997697,-4.70906 1.140061,-6.41139 1.083693,-12.95829 4.349623,-39.15091 6.951386,-55.74985 3.372588,-21.51674 5.112524,-30.7891 6.921166,-36.88379 4.764968,-16.0569 11.011367,-34.74919 14.184768,-42.44788 1.95476,-4.74223 5.9108,-15.18838 8.7912,-23.21368 2.88041,-8.0253 6.16982,-16.48172 7.3098,-18.79203 l 2.0727,-4.20057 -7.74025,-0.27767 c -16.984524,-0.60931 -30.256028,-4.23256 -42.872074,-11.7045 -7.682325,-4.54992 -13.537377,-9.54074 -19.62954,-16.7321 -7.969824,-9.40782 -12.954903,-18.82869 -14.240949,-26.91277 -0.240765,-1.51345 -0.200823,-1.57924 1.496065,-2.46441 0.958886,-0.5002 5.825807,-1.83513 10.815379,-2.96653 9.2146,-2.08946 13.696003,-3.55507 31.006499,-10.14049 4.846258,-1.84366 12.017218,-4.44968 15.93548,-5.79117 9.93253,-3.40061 36.57452,-13.44092 43.42323,-16.36451 3.93816,-1.68111 9.28206,-4.59225 17.31908,-9.43471 9.06957,-5.46459 46.68574,-26.06487 53.80569,-29.46638 0.89436,-0.42727 2.68569,-2.50853 5.62427,-6.5346 l 4.31198,-5.907657 6.37418,-4.213677 c 6.27547,-4.148412 21.04782,-12.292732 31.76114,-17.510584 4.46083,-2.172627 7.38893,-3.202543 15.91166,-5.596682 5.74468,-1.613747 14.56376,-4.333149 19.598,-6.043113 l 9.15317,-3.109031 2.04206,-2.601055 2.04207,-2.601056 6.98996,-0.0034 c 3.8445,-0.0019 12.40437,-0.207445 19.02198,-0.456819 11.75011,-0.442787 12.53632,-0.416918 33.55826,1.104207 l 21.52624,1.557618 10.91331,2.429337 c 6.0023,1.336134 11.9078,2.724526 13.12333,3.085315 1.21552,0.360788 2.8006,0.767182 3.52238,0.903096 12.41884,2.338507 50.01274,13.301023 57.84861,16.868871 l 4.41784,2.011545 10.58027,10.117794 c 5.81911,5.564771 17.52579,16.088481 26.01484,23.386001 l 15.43465,13.26821 0.40708,2.2386 c 0.22393,1.23123 0.40712,2.43126 0.40712,2.66675 0,1.00437 4.38288,8.58616 13.61836,23.558 11.15267,18.07982 16.38408,26.83314 17.2689,28.89452 0.33329,0.77657 1.8028,5.15401 3.26552,9.72764 1.51456,4.73556 3.84984,10.93571 5.42429,14.4013 2.01805,4.44196 2.69039,6.32257 2.48954,6.96298 -0.21716,0.69224 0.21616,1.48308 2.05388,3.74828 4.25339,5.24289 6.49699,12.46883 6.61796,21.31429 l 0.0676,4.94874 1.80562,0.99912 c 0.9931,0.54951 1.87706,1.13535 1.96432,1.30187 0.0872,0.16652 1.34775,7.14024 2.80104,15.49715 4.09643,23.55551 7.67104,52.53181 14.9657,121.31408 2.10649,19.8622 2.31229,22.64924 3.20772,43.43852 l 0.9568,22.21457 3.53794,17.47342 3.53793,17.4734 1.15971,19.28594 1.15965,19.28597 -0.40402,17.96283 c -0.56962,25.32808 -0.12298,23.06516 -10.11726,51.25997 -5.86666,16.55038 -8.8259,24.28327 -11.85153,30.96969 l -4.03251,8.91154 -2.66045,0 -2.6604,0 -2.93789,-4.44699 c -1.61586,-2.44584 -5.32691,-9.06173 -8.24683,-14.702 l -5.30888,-10.25501 -2.43719,2.90534 c -2.88746,3.44212 -5.37317,5.19013 -9.95434,7.0001 -4.22016,1.66731 -8.95552,2.58418 -15.30192,2.9628 -2.71009,0.16167 -5.13832,0.49068 -5.3961,0.73108 -0.33303,0.31062 -0.4687,0.23771 -0.4687,-0.25198 0,-0.66798 -4.30159,-3.9018 -11.23326,-8.44488 -2.76722,-1.81363 -3.27822,-2.01163 -4.00604,-1.55231 -2.31504,1.46105 -2.25046,7.60998 0.11924,11.35185 0.50051,0.79037 1.24037,1.43704 1.64412,1.43704 0.66948,0 0.71454,0.22386 0.51204,2.54244 -0.12212,1.39835 -0.27266,2.747 -0.3345,2.997 -0.25916,1.04758 0.63586,5.74381 1.46032,7.66255 1.02392,2.38274 3.94201,5.77207 6.06682,7.04653 0.80262,0.48138 2.80913,1.5084 4.45894,2.28218 l 2.99962,1.40693 3.29451,8.48136 3.29453,8.4813 6.26677,5.96924 c 3.44671,3.28307 8.29151,8.36872 10.76619,11.30148 2.47469,2.93274 6.77728,7.68235 9.5613,10.5547 4.70977,4.85918 5.30347,5.65508 8.53548,11.44253 6.26846,11.22468 9.81844,19.41902 10.75012,24.81428 0.45451,2.63212 0.51589,2.72899 3.1322,4.94341 2.27728,1.92748 4.16929,4.45822 12.90374,17.25993 5.62934,8.25066 12.25993,17.89549 14.73461,21.4329 l 4.49944,6.43169 5.71101,1.66696 c 11.04416,3.22365 19.19629,9.38964 22.38913,16.93445 0.4908,1.15989 1.67423,5.9637 2.62982,10.67519 l 1.73733,8.56629 -0.57304,5.82889 -0.57301,5.8289 1.57136,8.59741 1.57131,8.59738 0.20334,12.06196 0.20333,12.06191 6.54982,3.53105 c 3.60243,1.94208 7.98938,4.1457 9.74877,4.89698 9.525,4.06704 19.29745,11.43042 29.21518,22.01311 6.49072,6.92595 10.62874,16.69613 10.68119,25.21917 0.0557,9.04118 -2.70718,14.92034 -12.20781,25.9777 -6.28716,7.3174 -7.66936,8.50815 -16.48227,14.20001 -8.35474,5.39597 -9.2322,5.86505 -17.82031,9.52685 -24.4496,10.42489 -28.34119,11.84292 -48.49215,17.66919 -10.62054,3.07076 -20.65989,5.79989 -22.30968,6.06474 -1.64979,0.26481 -6.20546,1.17785 -10.12372,2.02905 -11.43987,2.4849 -25.50914,5.0332 -27.78848,5.0332 -1.15834,0 -7.35953,0.8022 -13.78045,1.7828 -17.22109,2.6296 -47.55627,5.6416 -60.23069,5.9802 -5.67115,0.1515 -12.33593,0.3402 -14.81061,0.4194 -28.9015,0.9247 -32.74544,0.9796 -44.99431,0.6417 z m 59.85635,-4.603 c 14.5105,-0.84 27.22639,-1.6216 28.25751,-1.7371 1.03112,-0.1154 13.26338,-1.7208 27.18282,-3.5678 23.47656,-3.1149 26.40097,-3.5986 40.41002,-6.68454 12.56388,-2.76756 15.32983,-3.50899 16.45776,-4.41162 0.74566,-0.59674 1.6767,-1.08498 2.06898,-1.08498 0.39228,0 6.23205,-1.1843 12.97726,-2.63177 6.74526,-1.44747 13.44517,-2.85974 14.88873,-3.1384 3.43272,-0.66263 10.93921,-3.34401 24.5594,-8.77283 9.96271,-3.971 12.26217,-5.08746 23.15649,-11.24356 13.44172,-7.59555 14.83921,-8.50593 20.96147,-13.65539 6.67561,-5.61484 11.98663,-12.90159 13.97793,-19.17791 1.15196,-3.63088 1.98999,-8.96149 1.81192,-11.52591 -0.17064,-2.45774 -2.36142,-8.33796 -4.46731,-11.9906 -6.53135,-11.32859 -19.66362,-22.05441 -39.04632,-31.89122 -5.31284,-2.69633 -10.05101,-5.01818 -10.52926,-5.15976 -0.74585,-0.22073 -1.46475,0.53697 -5.0545,5.32756 l -4.185,5.58495 -0.009,2.73567 -0.009,2.73572 -2.36427,2.10029 -2.36427,2.10029 -25.65409,-0.0123 -25.65411,-0.0123 -1.49981,-2.73705 -1.49981,-2.73709 -7.49904,-1.83277 c -6.27934,-1.53473 -8.53584,-2.31767 -13.87325,-4.81373 -9.08788,-4.24996 -9.59369,-4.55081 -16.17897,-9.62364 -3.26877,-2.51804 -6.15414,-4.73056 -6.41192,-4.9167 -0.34379,-0.24828 -0.46869,0.11943 -0.46869,1.37991 0,1.68774 0.0936,1.80333 5.25219,6.48515 2.8887,2.62169 5.31922,4.89468 5.40118,5.05108 0.082,0.15634 -0.22441,2.82463 -0.68083,5.92952 -0.80338,5.46551 -0.80829,5.68373 -0.1543,6.8532 0.45497,0.81368 0.66798,2.00186 0.65246,3.63991 l -0.0229,2.43191 -6.64724,6.67865 -6.64723,6.67864 -5.71659,0.46573 -5.71662,0.46573 -6.07707,-1.93085 -6.07708,-1.93079 -2.00724,2.42191 c -3.10329,3.74443 -4.94697,4.84034 -8.11648,4.82446 -3.31878,-0.0168 -5.17727,-1.10072 -8.17449,-4.76853 -2.54762,-3.11762 -4.33036,-7.22211 -6.67431,-15.36648 -0.87019,-3.02357 -1.59722,-5.52247 -1.61563,-5.55307 -0.0184,-0.0305 -0.37093,-0.17713 -0.78338,-0.32565 -0.65478,-0.23581 -0.88272,0.17279 -1.79712,3.22179 -2.06907,6.89932 -5.94667,15.20072 -8.1911,17.53602 -0.72336,0.7526 -2.07918,1.09952 -7.40737,1.89516 l -6.52196,0.97395 -1.50312,-1.22837 c -0.82672,-0.67564 -2.26688,-2.58287 -3.20036,-4.23834 l -1.69722,-3.0099 1.01274,-4.60839 c 0.88946,-4.04726 0.96052,-4.85307 0.5836,-6.61823 -0.23602,-1.10542 -0.54972,-2.09773 -0.69702,-2.20508 -0.14736,-0.1074 -0.81628,0.34461 -1.48654,1.00451 -1.20577,1.18707 -1.21733,1.23528 -1.09208,4.56787 l 0.12659,3.36812 -7.58565,6.49814 -7.58561,6.49819 -4.4553,-3.60506 -4.45534,-3.60505 -1.75684,-14.81025 -1.75684,-14.81019 4.79894,-5.94726 c 7.29274,-9.03786 9.02946,-11.3923 8.17348,-11.08093 -0.41245,0.15008 -3.97896,1.0669 -7.92555,2.03745 l -7.17567,1.76464 -4.75593,3.38004 -4.75594,3.38005 -8.69079,-0.41727 c -7.50903,-0.36054 -9.54686,-0.30788 -14.98622,0.38725 l -6.2954,0.80456 -9.4526,-7.65021 c -5.19893,-4.2076 -9.67168,-7.80373 -9.93941,-7.99143 -0.29057,-0.20371 -3.31381,1.00624 -7.49906,3.0012 -4.12466,1.96604 -13.23825,5.62111 -22.13164,8.87602 -9.81061,3.59056 -15.487,5.88518 -16.16625,6.53503 -0.57575,0.5508 -2.72543,2.73116 -4.7771,4.84529 l -3.73029,3.84384 -9.1623,1.78771 c -16.49396,3.21826 -51.00675,10.56766 -58.10151,12.37259 l -6.94454,1.76671 -18.73972,0.68469 -18.7397,0.68469 -2.63426,-3.20657 c -1.44885,-1.76358 -4.50323,-5.5747 -6.78748,-8.46911 l -4.15324,-5.2626 -3.55141,1.79638 c -10.71827,5.42156 -24.53864,17.67498 -28.1646,24.97129 -1.67501,3.37053 -3.18712,9.429 -3.67119,14.70907 l -0.44589,4.86382 1.69931,3.98992 c 3.10481,7.28989 9.04178,15.33823 14.90041,20.19939 5.76002,4.77933 15.86761,11.69471 20.99733,14.36591 9.59673,4.99727 28.28414,12.55847 40.71625,16.47442 30.71706,9.67546 57.47033,15.47559 92.76687,20.11179 8.35207,1.0971 17.37904,2.2084 20.05995,2.4697 2.68092,0.2613 7.23659,0.7699 10.12371,1.1302 7.30584,0.9118 14.52363,1.403 28.66339,1.9503 6.691,0.2591 12.245,0.5649 12.34218,0.6795 0.0973,0.1146 13.88093,0.2084 30.63052,0.2084 29.38412,0 31.38049,-0.054 56.83657,-1.5271 z m 27.50762,-98.42529 c 0.82488,-0.66029 1.78031,-1.57195 2.12312,-2.02583 1.50925,-1.99823 1.89055,-11.47401 0.72706,-18.0697 -1.18496,-6.71756 -3.65166,-12.01509 -7.6839,-16.50206 -1.16284,-1.294 -2.01739,-2.53759 -1.89899,-2.76354 0.33833,-0.64556 4.21947,-0.47983 5.38332,0.22989 3.88626,2.36992 7.07115,11.45548 8.51535,24.2919 0.8756,7.78255 0.71931,7.25752 2.30536,7.74342 3.44754,1.05612 11.12248,2.72436 13.72908,2.98422 l 2.85878,0.28498 0.0128,-5.48144 c 0.0124,-5.24492 -0.0806,-5.91608 -2.15597,-15.55728 l -2.16885,-10.07593 -6.56166,-2.48479 c -6.37772,-2.41515 -8.06256,-3.24364 -6.54292,-3.21747 2.02903,0.0349 14.51496,1.28211 14.67036,1.46534 0.0989,0.11664 1.67565,5.21154 3.50396,11.32205 l 3.32418,11.10998 -0.50244,6.5054 c -0.27633,3.578 -0.46081,6.5585 -0.40993,6.62337 0.0511,0.0648 1.34113,-1.04656 2.86718,-2.4699 1.52603,-1.42328 4.06655,-3.77842 5.6456,-5.23359 l 2.87096,-2.64575 -1.69924,-2.9144 -1.69926,-2.91435 -0.44465,-7.5464 c -0.24457,-4.15051 -0.52804,-7.64468 -0.62991,-7.76481 -0.10191,-0.12014 -1.69454,-0.76331 -3.53921,-1.4293 -1.84467,-0.66595 -3.47618,-1.41776 -3.62562,-1.67069 -0.14937,-0.25287 -0.89545,-3.54391 -1.65788,-7.31337 l -1.38628,-6.85355 -4.77884,-8.44842 -4.77884,-8.4484 -3.49952,-0.2737 c -1.9247,-0.15056 -10.16425,-0.59825 -18.31009,-0.99488 l -14.81062,-0.72117 -9.18635,4.0226 c -5.05248,2.21242 -9.47745,4.22206 -9.83327,4.46587 -0.3558,0.24381 -3.13982,0.67753 -6.18672,0.96387 l -5.53976,0.52065 -2.99962,3.75996 c -3.37035,4.22467 -8.94128,9.28861 -11.9379,10.85141 -1.84991,0.96475 -2.26472,1.49947 -5.87877,7.578 -2.13866,3.59697 -4.27756,7.03507 -4.75315,7.64022 -0.73466,0.93483 -0.8645,1.57278 -0.8633,4.24142 0,3.38142 0.60603,8.33686 1.89899,15.5675 l 0.81274,4.54519 4.10858,3.20358 c 2.40393,1.87442 4.21353,3.01883 4.36144,2.75826 0.13908,-0.2449 1.94102,-2.81897 4.00434,-5.72011 2.0633,-2.90113 3.96255,-5.59516 4.22051,-5.98665 0.37987,-0.57645 0.32602,-1.53188 -0.28313,-5.02304 -0.41371,-2.37116 -0.75223,-4.71398 -0.75223,-5.20623 0,-0.49227 0.80147,-2.80833 1.78103,-5.14676 l 1.78104,-4.25174 0.10519,5.39602 c 0.10509,5.39017 0.10628,5.39693 1.19137,6.3081 1.01384,0.8513 1.09917,0.86001 1.28024,0.13106 0.10673,-0.42956 1.22502,-4.86001 2.48511,-9.84543 1.26011,-4.98541 2.3748,-9.40256 2.47717,-9.8159 0.18319,-0.73995 13.15812,-9.03534 13.5006,-8.63146 0.0946,0.11142 -0.22098,1.47227 -0.70108,3.0241 l -0.87285,2.82154 -4.10858,2.43665 c -4.09523,2.42877 -4.11056,2.44389 -4.7361,4.661 -1.12425,3.98465 -2.17289,17.49661 -2.18125,28.1061 l -0.003,4.25213 1.88552,0.92409 c 1.87578,0.91925 1.9049,0.91988 5.63981,0.11434 2.06482,-0.44531 3.81299,-0.88438 3.88482,-0.97564 0.0718,-0.0913 2.15192,-3.08641 4.62245,-6.65587 l 4.49184,-6.48993 0.2666,-8.10153 c 0.28411,-8.63332 0.6844,-11.64234 1.60424,-12.05856 1.03359,-0.46772 1.64551,0.62912 1.44398,2.58813 -0.10253,0.99611 -0.28723,3.06734 -0.41058,4.60281 l -0.22425,2.7917 1.42156,-0.13871 1.42154,-0.13875 0.76926,-3.85657 c 0.8211,-4.11633 1.53281,-5.38141 4.45425,-7.91777 1.24819,-1.08361 1.81101,-1.26954 3.84325,-1.26954 1.30954,0 2.38096,0.15418 2.38096,0.34259 0,0.18845 -1.51871,1.53153 -3.37491,2.98462 -3.24345,2.53913 -3.39902,2.73673 -3.99462,5.07393 -1.2312,4.83119 0.53437,17.37043 3.31078,23.51325 2.23386,4.94248 4.46344,7.24187 8.73509,9.00877 2.51012,1.03824 2.74465,1.00419 4.88495,-0.7091 z M 219.04298,897.19253 c 3.54766,-0.26146 6.52404,-0.56231 6.61417,-0.66856 0.0901,-0.1063 0.13333,-1.50027 0.096,-3.09768 -0.22601,-9.67308 -7.62146,-23.29508 -21.68261,-39.93819 -3.78395,-4.47874 -6.87991,-8.2095 -6.87991,-8.29059 0,-2.04555 16.09558,14.81196 22.51588,23.58173 8.99022,12.28018 11.63542,20.93163 8.17784,26.74658 l -0.69821,1.17422 3.84362,-0.21839 c 2.11399,-0.12014 6.12145,-0.60727 8.90546,-1.08255 2.78403,-0.47528 6.96006,-1.1866 9.28009,-1.58065 2.32002,-0.39411 4.2087,-0.83331 4.19711,-0.97604 -0.0116,-0.14273 -1.15053,-0.89658 -2.53093,-1.67523 -9.20966,-5.19491 -22.00278,-24.51321 -24.83015,-37.49482 -1.9238,-8.83301 -0.49991,-17.28681 3.87906,-23.03032 1.6414,-2.15291 1.67579,-2.25849 1.36128,-4.18063 -0.94429,-5.77114 0.0728,-12.05369 2.49065,-15.38474 0.75033,-1.03374 5.09916,-5.27265 9.66407,-9.41981 13.57005,-12.32823 27.16226,-24.91221 27.05569,-25.0488 -0.0547,-0.0701 -5.21344,1.3827 -11.46384,3.22847 l -11.36433,3.35591 -6.02532,5.19783 c -9.926,8.56275 -17.0697,14.27902 -18.33312,14.66985 -0.65478,0.20251 -3.54629,0.79952 -6.42558,1.32659 l -5.2351,0.95834 -7.70077,4.55678 -7.70078,4.55678 -1.66856,3.68895 c -0.91772,2.02887 -2.79921,6.01105 -4.18112,8.84923 -1.38189,2.83817 -3.71916,8.30996 -5.19393,12.15954 -1.47476,3.84958 -3.49668,8.69049 -4.49316,10.75762 -3.40814,7.07 -3.2652,6.26225 -1.66611,9.41436 0.76595,1.50986 1.44475,2.82327 1.50844,2.91873 0.0636,0.0954 0.36729,-0.0726 0.67467,-0.3734 0.3074,-0.30085 0.74032,-0.47569 0.96208,-0.38849 0.22176,0.0871 1.14002,2.0876 2.04058,4.4454 l 1.6374,4.28696 11.1571,13.72513 11.15711,13.72516 2.20248,0 c 1.21134,0 5.10508,-0.21387 8.65273,-0.47527 z m -13.73925,-30.11535 c -6.3182,-8.55639 -11.48765,-15.71948 -11.48765,-15.91796 0,-0.58548 1.47948,-0.41383 2.7994,0.32481 3.32596,1.86121 9.78688,9.61317 15.62458,18.7468 4.27471,6.68819 6.52627,12.40335 4.88645,12.40335 -0.18431,0 -5.50457,-7.00067 -11.82278,-15.557 z m 71.18938,20.88478 c 6.18672,-1.44826 16.45634,-3.8475 22.82139,-5.33158 12.06342,-2.81275 17.57453,-4.70725 19.9754,-6.86673 1.68417,-1.51486 2.30122,-3.01601 1.63111,-3.96818 -0.28939,-0.4112 -0.35019,-0.84768 -0.14886,-1.06875 0.57541,-0.63181 9.63957,-3.81244 18.90047,-6.63217 7.45732,-2.27057 10.0502,-3.29799 16.87286,-6.6859 4.4338,-2.20167 8.17769,-4.14202 8.31973,-4.31187 0.14204,-0.16978 -3.37488,-3.79081 -7.81536,-8.04665 l -8.0736,-7.7379 -3.88937,-6.38287 c -3.18662,-5.22958 -3.92921,-6.74753 -4.10986,-8.40114 -0.12127,-1.11006 -0.29353,-2.44088 -0.38279,-2.95747 -0.10508,-0.60776 -1.9925,-2.43443 -5.34885,-5.17651 -9.59399,-7.83823 -33.587,-31.50009 -35.91466,-35.419 -0.39655,-0.66762 -0.52793,-2.52684 -0.52793,-7.47025 0,-6.08817 -0.0492,-6.55878 -0.65617,-6.27967 -0.36089,0.16589 -3.44018,1.19468 -6.84289,2.28616 -3.40268,1.09144 -6.52417,2.33221 -6.93661,2.75726 -0.41246,0.42501 -2.26846,2.37381 -4.12449,4.33065 -1.85601,1.95689 -7.60094,6.94448 -12.76651,11.08359 -5.27554,4.22719 -13.57462,11.46433 -18.93509,16.51213 -5.24874,4.94262 -10.22903,9.5326 -11.06728,10.19996 -0.83828,0.6674 -1.7241,1.73104 -1.9685,2.36359 -0.68221,1.7657 -0.52955,5.86303 0.34616,9.29003 1.27008,4.97034 1.26611,5.1828 -0.11513,6.1889 -2.79216,2.03383 -3.88094,6.72021 -3.57193,15.3744 0.30038,8.41255 1.00666,11.78278 4.09834,19.55667 2.55041,6.41289 2.75116,6.76531 6.06362,10.64463 7.15686,8.38165 16.28694,14.6722 21.41843,14.75715 0.82488,0.0137 6.56165,-1.16016 12.74837,-2.60848 z m 368.76583,-0.84125 c 0,-1.66666 0.10604,-4.22604 0.2355,-5.68749 l 0.2355,-2.65715 3.62617,-3.85078 3.62617,-3.85081 0.66609,-13.78596 0.66608,-13.78596 -1.23367,-7.41075 -1.23366,-7.41069 0.65072,-5.4121 c 0.79077,-6.5765 0.80442,-9.0478 0.0727,-13.15009 -1.92871,-10.81244 -8.71195,-18.85008 -19.12255,-22.65884 -4.06605,-1.48763 -5.55112,-1.80183 -5.20271,-1.10073 0.14922,0.30032 2.96109,5.60555 6.24865,11.78937 l 5.97726,11.24333 1.64338,7.99086 c 0.90387,4.39499 1.89509,9.08521 2.20274,10.42276 0.30764,1.33755 0.78163,5.51602 1.05336,9.28548 l 0.494,6.85356 -1.03408,4.23987 c -2.84335,11.65796 -8.59857,23.39219 -14.5953,29.75804 -4.77295,5.06678 -10.69403,9.0369 -16.49025,11.05688 l -3.16915,1.10439 17.34156,0.0234 17.34156,0.0234 0,-3.03029 z m -31.42104,-3.29485 8.07833,-3.67209 5.3253,-5.945 5.3253,-5.94496 3.77952,-8.8433 c 2.56773,-6.00797 4.28008,-10.69236 5.34063,-14.61035 l 1.56104,-5.76707 -2.6802,-9.74568 c -2.32519,-8.45469 -3.21338,-10.97083 -6.70502,-18.99423 -2.2136,-5.08667 -5.89627,-12.92952 -8.18367,-17.42856 l -4.15886,-8.18006 -3.78495,-3.54166 c -2.17192,-2.03237 -3.78661,-3.8685 -3.78882,-4.30849 -0.003,-0.42179 -0.89547,-1.68656 -1.98516,-2.81063 -1.23697,-1.27609 -2.41248,-3.05134 -3.12934,-4.72604 -0.63151,-1.4752 -5.36352,-9.10304 -10.51563,-16.95076 l -9.3674,-14.26855 -1.7475,-0.2653 c -0.96112,-0.14587 -2.04275,-0.33573 -2.40364,-0.42191 -0.36089,-0.0861 -0.65615,0.004 -0.65615,0.19645 0,0.19424 -0.51763,3.9064 -1.15033,8.24922 -0.92817,6.37129 -3.52793,19.69227 -6.00637,30.77603 -0.26999,1.20742 -0.71214,1.8662 -1.63217,2.43191 -2.47608,1.52251 -4.25191,4.86828 -10.97271,20.67335 l -6.58081,15.47579 -7.42495,12.15955 -7.42497,12.15955 -3.58528,1.7064 -3.58531,1.7064 0.58989,1.16767 c 0.32441,0.6422 2.30561,4.53689 4.40268,8.65486 l 3.81282,7.48719 14.2665,9.37253 14.26649,9.37254 8.60561,1.36284 c 7.89054,1.24964 9.24431,1.5998 16.29215,4.21432 4.22759,1.56827 7.6996,2.86912 7.71561,2.89079 0.016,0.0217 3.66431,-1.61306 8.10737,-3.63275 z m -203.29925,-16.71933 10.68614,0.27295 3.93701,-2.94729 3.93698,-2.94731 2.75164,0.31501 2.75163,0.315 4.69837,-5.14336 4.69835,-5.14336 4.45478,-1.71029 c 3.14727,-1.20831 4.45428,-1.911 4.45328,-2.39415 0,-0.37611 -0.91891,-4.68947 -2.0402,-9.58527 -2.00619,-8.75933 -2.06003,-9.15582 -3.37313,-24.84531 -0.73388,-8.76915 -1.33437,-16.26771 -1.33437,-16.66344 0,-0.54338 -0.20652,-0.64353 -0.84364,-0.40905 -0.464,0.17077 -0.93267,0.4725 -1.04146,0.67059 -0.35952,0.65441 -9.59478,2.61585 -12.31645,2.61585 -2.17139,0 -2.81166,-0.1655 -3.42122,-0.88433 -0.41244,-0.48638 -0.7499,-1.18703 -0.7499,-1.55705 0,-0.37 -0.40049,-0.8879 -0.88994,-1.1509 -1.14999,-0.61793 -2.2726,0.0576 -3.0528,1.8367 l -0.57597,1.31342 -4.26931,0 c -4.76206,0 -8.40655,-0.68983 -12.76965,-2.41701 -6.38911,-2.52923 -14.0055,-7.93422 -19.23358,-13.64925 -1.52068,-1.66227 -3.38374,-3.33128 -4.14014,-3.70888 -1.97736,-0.98714 -4.92983,-1.8666 -5.46042,-1.62651 -0.4483,0.20287 -4.269,-1.82207 -21.59907,-11.44726 -4.84626,-2.69164 -11.59542,-6.30798 -14.99811,-8.03627 l -6.18672,-3.14233 -8.43643,-17.3133 c -4.64005,-9.5223 -8.53706,-17.17556 -8.66005,-17.00732 -0.2168,0.29665 -10.20438,32.74155 -12.41234,40.32191 -1.52211,5.22564 -2.17465,9.54355 -2.17465,14.38951 l 0,4.14189 11.52978,11.17401 c 6.34139,6.14574 12.87606,12.37258 14.52147,13.83743 4.02853,3.5865 13.35883,10.84349 13.94142,10.84349 0.25747,0 0.89759,0.5065 1.42254,1.12553 0.89404,1.05431 0.95441,1.40234 0.95441,5.50328 l 0,4.3778 11.90474,10.25349 c 6.54761,5.63942 13.00149,11.51351 14.34194,13.05343 1.50211,1.72568 6.38724,5.91463 12.73258,10.91809 l 10.29539,8.1181 2.64046,-0.97059 c 2.54405,-0.93518 3.03081,-0.96065 13.32664,-0.69765 z m 55.3055,-22.06055 c 6.45068,-0.86851 7.0476,-1.03419 13.49829,-3.74639 13.96607,-5.87204 16.04064,-6.172 36.09537,-5.21883 7.70182,0.36603 14.06378,0.59388 14.13773,0.50633 0.0739,-0.0875 -0.12434,-3.72963 -0.44065,-8.09353 l -0.57509,-7.93435 1.04626,-6.95844 1.04626,-6.95849 -1.97647,-14.06899 c -1.08711,-7.73799 -2.72884,-19.14289 -3.64834,-25.34426 -0.91949,-6.20137 -1.90963,-13.74069 -2.20033,-16.75405 l -0.52853,-5.47878 1.52861,-4.34352 1.52856,-4.34352 -0.58713,-11.8438 -0.58719,-11.84375 -2.04768,-7.17255 c -1.44015,-5.04461 -2.27634,-8.91444 -2.81845,-13.04387 -0.42392,-3.22922 -2.20941,-13.29322 -3.96768,-22.36437 l -3.19692,-16.49308 0,-11.87417 c 0,-11.63346 0.0259,-12.03862 1.27965,-19.98557 l 1.27968,-8.11143 0.25339,-21.67579 c 0.23385,-20.00718 0.18878,-22.66208 -0.58561,-34.48889 l -0.83895,-12.81312 -2.45091,-4.86382 c -1.348,-2.6751 -3.31361,-6.45561 -4.36801,-8.40113 -1.05445,-1.94554 -2.81763,-5.42759 -3.91822,-7.7379 -1.1006,-2.31031 -2.42485,-5.08176 -2.94278,-6.15874 l -0.94169,-1.95822 -1.28584,3.00783 c -0.70722,1.65428 -1.42562,2.83393 -1.5965,2.62142 -0.17086,-0.2125 -1.44702,-3.37098 -2.83587,-7.01884 -1.38883,-3.64787 -2.56367,-6.68904 -2.61074,-6.75815 -0.27925,-0.41033 -5.55349,-1.0016 -12.64177,-1.41723 l -8.14502,-0.47753 -3.29104,1.60285 c -6.17213,3.00601 -11.83695,7.50664 -17.4949,13.89933 -4.09726,4.62939 -4.82666,5.96004 -6.42906,11.72857 -1.52902,5.50443 -1.55091,5.7076 -2.26133,20.99595 -0.47942,10.31639 -0.49828,15.1756 -0.12446,32.05699 0.32801,14.81245 0.56488,20.12344 0.92685,20.78177 0.81096,1.47484 1.42712,33.15206 0.86442,44.43762 l -0.45197,9.06439 1.91387,11.05413 c 1.93791,11.19298 2.60877,16.57634 2.16997,17.41358 -0.16319,0.31138 -0.55711,0.31872 -1.21737,0.0225 -0.53684,-0.24072 -1.01997,-0.38234 -1.07363,-0.31473 -0.0537,0.0676 -0.29223,11.79861 -0.53023,26.06892 l -0.43265,25.94595 2.26599,15.17542 c 2.98331,19.97902 5.5039,42.7773 6.37093,57.62326 l 0.69718,11.93846 2.38308,10.73808 2.3831,10.73807 1.31234,-0.22657 c 0.72178,-0.12459 4.34944,-0.63543 8.06148,-1.13521 z m 0.33122,-21.85792 c -0.10683,-0.32844 0.19671,-1.55351 0.67462,-2.72241 0.79445,-1.94314 1.15119,-2.28927 4.16257,-4.03861 6.64563,-3.86049 13.76636,-5.83883 16.69007,-4.63689 0.8646,0.35541 1.51425,0.30522 2.75951,-0.21322 3.19561,-1.33038 8.91408,-1.10731 7.09028,0.27657 -0.84534,0.6415 -8.27743,2.73675 -8.67629,2.44602 -1.06622,-0.77706 -11.19676,3.21317 -18.64475,7.34392 -2.90501,1.61117 -3.90981,1.99381 -4.05601,1.54462 z m 69.80522,10.30546 c 4.04121,-3.02211 5.81068,-5.33411 12.23642,-15.98782 3.50172,-5.80576 8.11528,-14.12444 10.25233,-18.48587 3.35254,-6.84215 4.046,-8.61122 5.05552,-12.89628 1.98627,-8.43107 1.51358,-7.5532 4.70146,-8.73215 1.54881,-0.57282 2.96524,-1.25353 3.14765,-1.51274 0.50174,-0.71289 3.10693,-12.61802 6.00509,-27.44166 1.42636,-7.29573 3.19321,-15.15522 3.92628,-17.46553 0.73307,-2.31031 1.33371,-4.46959 1.33468,-4.79834 0,-0.32879 -1.75584,-4.04435 -3.90405,-8.25681 l -3.90588,-7.65906 -17.9351,-21.16482 -17.93511,-21.16477 -2.722,-7.50713 -2.72201,-7.50713 -6.56095,-4.82124 c -7.49635,-5.50858 -6.59617,-3.96591 -8.27187,-14.176 -0.78762,-4.79912 -1.30146,-6.78652 -2.28635,-8.84331 l -1.27037,-2.65298 0.18717,12.60171 c 0.25625,17.25054 0.4916,19.75785 2.9262,31.17265 1.14114,5.35021 2.43131,12.15619 2.86712,15.12436 1.18317,8.05887 2.00089,11.62404 4.30745,18.78004 l 2.09198,6.49015 0.0184,5.6694 c 0.01,3.11815 0.21374,10.00612 0.45255,15.30658 l 0.43412,9.63716 -1.62122,3.90043 -1.62121,3.90048 2.30045,11.66578 c 1.40128,7.10599 3.11944,17.71487 4.39578,27.14161 l 2.09535,15.47578 -0.14106,17.79716 c -0.0776,9.78844 -0.0402,17.79715 0.0828,17.79715 0.12313,0 1.05838,-0.62407 2.07833,-1.3868 z m -96.05842,-38.62416 c 3.56344,-2.01009 5.26689,-5.90972 5.21728,-11.94346 -0.0285,-3.4439 -0.95684,-9.06466 -2.14736,-12.999 -1.34779,-4.45415 -7.50947,-11.57103 -12.66087,-14.62365 -7.23294,-4.28608 -14.73657,-4.09038 -22.97967,0.59936 -6.32313,3.59742 -10.31119,8.11555 -10.31119,11.68166 0,3.38937 2.94799,6.40144 8.1575,8.33477 1.59695,0.59268 4.93385,1.97373 7.41532,3.06907 l 4.5117,1.99146 3.17482,-1.58016 c 3.59408,-1.78887 6.56738,-4.17329 7.17949,-5.75757 0.89568,-2.31818 -1.73105,-4.56318 -7.74285,-6.61762 -1.77038,-0.60501 -4.35321,-1.31417 -5.7396,-1.57588 -5.24644,-0.99049 -5.42779,-1.29281 -1.48959,-2.48281 1.85477,-0.56043 4.02874,-0.81875 6.84287,-0.81309 4.59663,0.009 6.38539,0.66121 8.86846,3.23218 1.61032,1.66737 3.35319,6.0509 3.43843,8.64809 0.1216,3.70544 -3.31932,8.21243 -7.37352,9.65809 -0.86373,0.30797 -3.39779,0.54731 -5.68328,0.53679 -4.48573,-0.0207 -8.1452,-0.81792 -13.12333,-2.85887 -1.64979,-0.67642 -3.59017,-1.37359 -4.31195,-1.5493 -2.10989,-0.51366 -5.40715,-2.67545 -6.67214,-4.37443 -3.33353,-4.47728 -2.09279,-10.73476 3.71444,-18.733 2.92672,-4.03095 4.3042,-5.06204 9.14442,-6.84485 10.40509,-3.83251 21.812,-1.96321 30.36473,4.97604 l 1.6738,1.35807 0.28665,-1.22913 c 0.59074,-2.53343 0.29711,-7.75811 -0.54293,-9.66044 -0.77198,-1.74818 -3.07517,-4.53749 -4.47127,-5.41506 -1.89018,-1.1881 -5.92178,-2.33848 -9.73389,-2.77742 -7.1368,-0.8218 -18.8963,0.7894 -30.70044,4.20628 -4.70117,1.36086 -5.05564,1.54753 -9.97554,5.25346 l -5.10116,3.84246 -0.22957,2.89906 c -0.15262,1.92739 -0.4853,3.28241 -0.9926,4.04298 -0.41967,0.62915 -1.01578,2.14751 -1.32468,3.37416 -1.02726,4.07924 -0.60899,8.15349 1.32854,12.94095 0.95962,2.37114 1.21211,2.69017 1.99018,2.51476 1.14279,-0.25761 2.87493,0.80116 8.77229,5.36205 8.95462,6.92533 14.87909,10.4447 20.71813,12.30741 3.85706,1.23045 9.95889,1.31924 12.56091,0.18275 1.0311,-0.45035 2.91717,-0.83552 4.19125,-0.85594 1.89993,-0.0305 2.57416,0.16757 3.74953,1.1013 2.04368,1.62353 2.23277,1.67553 5.5575,1.52869 1.94418,-0.0859 3.50967,-0.42023 4.44919,-0.95021 z M 256.87015,775.63269 c 8.35442,-3.05196 20.26497,-8.36183 28.24688,-12.59287 1.23734,-0.65591 5.53991,-2.39008 9.56128,-3.85377 4.02136,-1.46371 7.55908,-2.82178 7.86158,-3.01801 0.37369,-0.24234 0.87857,-2.6728 1.5749,-7.58119 0.96655,-6.81346 1.02633,-8.05466 1.05063,-21.81595 0.0143,-8.0253 0.19356,-20.16274 0.39865,-26.97208 0.43566,-14.46492 0.49554,-30.32008 0.13958,-36.96225 l -0.25103,-4.68416 -3.98109,-2.88593 c -2.23591,-1.62084 -7.35059,-4.59577 -11.66761,-6.78639 -7.1493,-3.62779 -8.12767,-4.00112 -13.99857,-5.34119 l -6.31203,-1.44084 -5.87392,1.33817 c -4.81195,1.09622 -16.90719,4.9806 -35.78173,11.4913 l -2.53629,0.87487 -1.83714,4.31722 c -3.50431,8.23493 -6.81603,18.27849 -12.85099,38.97378 -1.45381,4.98541 -4.49476,15.03362 -6.75769,22.32935 -2.26292,7.29572 -4.29863,13.92648 -4.52379,14.73507 -0.81985,2.94403 1.17145,11.18873 2.99266,12.39062 0.52856,0.34883 0.75739,0.12323 1.28526,-1.2672 0.78252,-2.06107 1.8898,-2.96415 3.97313,-3.24027 0.9962,-0.13203 5.32396,-2.35277 11.70254,-6.00505 l 10.12174,-5.79555 7.46511,-1.8467 7.46512,-1.84671 2.88947,-16.82709 c 1.58921,-9.25487 3.73999,-20.50807 4.77951,-25.00711 1.03953,-4.49902 3.35067,-14.65379 5.13586,-22.56612 3.16862,-14.04406 3.28566,-14.44625 4.92269,-16.91804 0.9223,-1.39261 1.72665,-2.35604 1.78744,-2.14096 0.31918,1.12915 -2.14419,15.31549 -4.27192,24.60177 -1.33731,5.83658 -3.43233,14.9894 -4.65556,20.3396 -2.05975,9.00885 -6.74063,33.68557 -6.74063,35.53528 0,0.65056 4.55111,3.08477 23.20437,12.41118 l 23.20436,11.60194 0.24433,1.80182 c 0.13438,0.99098 0.11143,1.95623 -0.0511,2.14499 -0.16246,0.18872 -10.36052,-4.6962 -22.66241,-10.85538 l -22.36703,-11.19854 -9.31645,2.52282 c -9.81389,2.65754 -10.93733,3.14803 -34.7195,15.15875 -1.7599,0.88879 -1.78095,0.92368 -1.77528,2.94526 0.003,1.12522 0.1297,2.27065 0.28122,2.54546 0.36143,0.65551 18.03987,11.104 31.77148,18.77792 5.98049,3.3422 10.9461,6.09256 11.03467,6.11188 0.0886,0.0195 4.51533,-1.55554 9.83724,-3.4997 z m 118.91348,-20.97761 c 0.95909,-4.11899 1.70507,-7.52716 1.65775,-7.5738 -0.0473,-0.0466 -7.59446,-4.45513 -16.77142,-9.7967 l -16.6854,-9.71194 -3.38856,-3.97888 c -2.86041,-3.35873 -3.97984,-4.32795 -7.18209,-6.21843 -2.08643,-1.23174 -4.72372,-2.48502 -5.86065,-2.78507 l -2.06715,-0.5455 -3.49917,2.43554 c -1.92452,1.33954 -3.4565,2.6625 -3.40438,2.93991 0.052,0.27737 4.43841,7.99457 9.74734,17.14925 l 9.6526,16.64496 2.37982,1.25916 c 1.30889,0.69252 2.575,1.27197 2.81356,1.28767 0.23856,0.0155 7.18288,3.75128 15.43183,8.30134 l 14.99811,8.27283 0.21701,-5.09564 c 0.17804,-4.18076 0.53009,-6.44028 1.9608,-12.5847 z m 10.32185,-14.38735 c 15.70311,-6.26468 30.05381,-9.12138 40.21225,-8.00474 4.32035,0.47489 8.8725,1.70769 10.92298,2.95808 0.61277,0.37368 1.16737,0.61502 1.2325,0.53626 0.18327,-0.22156 1.2595,-24.3744 1.70078,-38.16935 0.40807,-12.75598 0.44372,-13.00275 1.96441,-13.60051 0.21685,-0.0852 -0.6814,-5.67874 -2.15043,-13.39147 l -2.52278,-13.24506 0.66823,-7.6434 c 0.61511,-7.03609 0.63067,-9.1091 0.19561,-26.08776 -0.25991,-10.14442 -0.87056,-27.88436 -1.35706,-39.42218 -0.81754,-19.39059 -0.84346,-21.44812 -0.34248,-27.19317 1.51545,-17.37948 4.39527,-29.88516 7.61854,-33.08351 0.67032,-0.66511 1.42247,-1.20933 1.67147,-1.20933 0.249,0 1.37495,-1.11302 2.50217,-2.47338 2.595,-3.13186 7.2881,-7.4684 10.64966,-9.84049 1.43053,-1.0095 2.39303,-1.83542 2.13888,-1.83542 -0.25413,0 -2.59549,0.72148 -5.20302,1.60325 l -4.74095,1.60328 -6.61539,6.76301 -6.61544,6.76302 -7.21987,15.6197 c -6.74118,14.58421 -7.20443,15.73331 -6.98753,17.3327 0.22524,1.66104 -0.0656,2.23794 -9.58829,19.01462 -5.40126,9.51589 -9.87756,17.38413 -9.94727,17.48503 -0.0696,0.10091 -13.85416,-5.62863 -30.63216,-12.73232 l -30.50548,-12.91583 -11.5836,0.46498 c -6.37098,0.25571 -13.31562,0.58256 -15.43254,0.72635 l -3.84892,0.26136 1.27928,1.19889 c 0.7036,0.6594 3.03581,3.4377 5.1827,6.17404 3.83263,4.88495 3.92483,5.05289 5.08411,9.25956 0.64938,2.35638 2.20047,8.66042 3.44688,14.00899 l 2.26618,9.72463 0,8.49648 0,8.49646 2.60639,4.7715 c 2.22171,4.06722 3.12867,5.27371 6.14464,8.17387 l 3.53821,3.40242 0.39588,2.78789 c 0.21774,1.5334 0.7698,5.82226 1.22683,9.53089 l 0.83093,6.74296 -1.58906,4.38855 c -1.50058,4.14423 -1.79705,4.62659 -5.32496,8.66356 l -3.73593,4.27503 -2.63924,7.80714 c -1.49377,4.41878 -4.5698,12.11975 -7.08742,17.7437 -2.44648,5.46512 -4.38355,10.01279 -4.30454,10.10591 0.21659,0.25544 4.58597,-3.80165 5.19056,-4.81956 0.49131,-0.82716 0.79292,-0.86748 4.42182,-0.59078 l 3.89455,0.29691 6.9333,7.2146 6.93332,7.21463 11.81102,6.05541 c 6.49605,3.33043 13.75139,7.21044 16.12295,8.62218 2.37158,1.4117 4.36876,2.57707 4.4382,2.58967 0.0693,0.0129 3.10653,-1.16603 6.74913,-2.61925 z m -58.60333,-54.7353 c -0.36897,-0.48492 -13.13497,6.61418 -15.85724,8.81816 l -1.59355,1.29014 9.8e-4,7.385 c 7.5e-4,4.06179 0.11108,10.21292 0.24514,13.66915 l 0.24379,6.28414 8.52478,-18.66477 c 4.68864,-10.26557 8.4847,-18.71743 8.4357,-18.78182 z m 0.54694,-3.42054 c 1.20882,-0.27834 1.72494,-1.02215 6.54365,-9.43037 l 5.23133,-9.12815 0.20847,-5.09096 0.20846,-5.09096 -6.56464,-9.18745 -6.56466,-9.18749 -10.12371,-6.59387 -10.12373,-6.59392 -6.74915,-1.83216 c -5.71108,-1.55032 -9.26447,-2.15069 -23.10319,-3.90348 -14.47363,-1.83318 -16.74783,-2.02331 -19.77874,-1.65352 -2.16165,0.26375 -3.42469,0.6085 -3.42469,0.93486 0,0.82955 -1.22101,1.90352 -3.01824,2.65482 -1.07135,0.44786 -3.27931,0.7427 -6.1681,0.82371 -5.237,0.14684 -7.77968,0.99535 -14.71415,4.91015 -9.05473,5.11174 -14.87656,9.62855 -22.86107,17.73645 -8.13039,8.25606 -8.74816,8.96897 -9.52952,10.99736 -2.16606,5.62297 1.31032,15.84318 9.50933,27.95674 l 2.45521,3.62744 3.85027,-9.59667 c 2.11764,-5.27817 4.47357,-11.18846 5.23538,-13.134 0.76182,-1.94552 2.28302,-4.83065 3.38046,-6.41139 l 1.99534,-2.87407 16.33861,-6.08107 c 11.82751,-4.40206 17.42564,-6.2729 20.27562,-6.776 2.16535,-0.38221 5.96174,-1.07871 8.43643,-1.54775 2.47469,-0.46905 5.18189,-0.85214 6.01601,-0.85135 1.17971,0 5.13569,1.97497 17.81024,8.88655 8.96152,4.88682 16.32175,8.91605 16.35607,8.95385 0.0343,0.0381 0.42995,5.14261 0.87919,11.34398 0.60088,8.29461 0.7513,12.73625 0.56906,16.80228 -0.13627,3.03988 -0.32544,5.84953 -0.42039,6.24368 -0.12869,0.53418 1.95345,-0.21525 8.17994,-2.9442 4.59391,-2.01345 8.94312,-3.79683 9.66491,-3.96304 z m -1.34119,-61.68176 -0.47857,-10.39088 -1.71365,-5.52707 c -1.18401,-3.81885 -1.84925,-6.82531 -2.15244,-9.72764 -0.43596,-4.17324 -0.4512,-4.21653 -2.3446,-6.65463 -1.99837,-2.57327 -6.93689,-10.15539 -7.63896,-11.72813 -0.25667,-0.57494 -1.97593,-1.70109 -4.60766,-3.01804 -4.05395,-2.02866 -4.27014,-2.08623 -6.29139,-1.67558 -1.77329,0.36027 -3.49881,0.1624 -11.29063,-1.29467 -7.8865,-1.4748 -11.16132,-2.35824 -22.97562,-6.19791 l -13.77817,-4.47795 -3.36943,2.60037 c -3.3552,2.58942 -3.36844,2.60692 -3.13919,4.14796 0.12663,0.85116 0.28198,1.65781 0.3452,1.79258 0.0632,0.13477 2.10721,-0.21865 4.54219,-0.78532 2.43497,-0.56669 4.67609,-0.97379 4.98025,-0.90472 0.30418,0.0691 -1.6534,1.70083 -4.35013,3.62607 l -4.90318,3.50049 -5.50344,10.81438 c -3.02688,5.94797 -5.44536,10.88293 -5.37438,10.96664 0.071,0.0837 5.87346,-4.5005 12.89439,-10.18715 l 12.76531,-10.33932 8.68103,0.46064 c 8.15278,0.43267 9.05732,0.40038 14.86544,-0.53046 3.40144,-0.54515 6.45388,-0.86921 6.78321,-0.7202 1.22197,0.55298 21.36724,14.59168 22.21502,15.48105 2.07991,2.182 2.91099,5.55369 4.53948,18.41703 1.54199,12.18001 2.68619,16.85331 4.97063,20.3018 0.63881,0.96428 2.61359,2.77994 2.75524,2.53321 0.0289,-0.0504 -0.16273,-4.76756 -0.42595,-10.48255 z m 263.49494,7.7379 c 1.80878,-3.03635 9.24035,-23.2636 13.56485,-36.92081 1.96368,-6.20137 4.35898,-13.46394 5.32294,-16.13904 2.15635,-5.98418 2.38609,-7.82562 2.62029,-21.00285 0.10159,-5.71499 0.31158,-11.7837 0.46669,-13.48604 0.15511,-1.70235 0.16919,-5.48286 0.031,-8.40115 -0.13791,-2.91829 -0.37397,-11.17573 -0.5246,-18.34986 l -0.27378,-13.04388 -2.93474,-12.82279 c -1.61414,-7.05254 -3.11702,-13.45818 -3.33978,-14.23472 -0.61653,-2.14948 -1.84769,-9.99347 -1.63285,-10.40341 0.10414,-0.19883 0.0208,-1.00428 -0.18542,-1.78989 -0.32699,-1.246 -0.88177,-10.39626 -2.27146,-37.46487 -0.24858,-4.84197 -0.95822,-10.87676 -2.4178,-20.56069 -3.32977,-22.09236 -4.40577,-33.12326 -5.11481,-52.43504 -0.31499,-8.57931 -0.5767,-11.32181 -1.85654,-19.45526 -0.81938,-5.20747 -2.25937,-17.02916 -3.19998,-26.27041 -2.00383,-19.68701 -6.13656,-46.8289 -7.45634,-48.96981 -0.41226,-0.66878 -0.84441,-1.21573 -0.9603,-1.21546 -0.11587,2.8e-4 -0.78454,2.5372 -1.48597,5.63761 -3.78707,16.74009 -16.62456,55.88157 -23.31181,71.07758 -2.86501,6.51042 -2.97807,6.89286 -6.14245,20.78177 l -3.22368,14.1493 -3.51662,6.23564 -3.51663,6.23565 -7.72193,6.1198 -7.72194,6.11979 0,4.00653 c 0,2.20361 0.75926,13.01419 1.68726,24.02353 0.92801,11.00935 1.6873,20.99046 1.6873,22.18026 0,1.1898 -0.4066,5.21413 -0.90357,8.94298 l -0.90355,6.77971 -7.67465,16.13903 -7.67464,16.13904 1.92924,0.69787 c 3.87848,1.40299 12.42991,8.80979 22.9137,19.84672 5.36182,5.64469 10.76114,11.06842 11.99848,12.05264 5.4088,4.30249 7.33902,7.70154 7.60539,13.39301 0.0912,1.94831 -0.0157,4.31787 -0.23774,5.2657 -0.38214,1.63216 -0.23459,2.21357 2.78808,10.98675 4.12433,11.97057 8.63602,22.59483 10.46489,24.6428 3.47773,3.89442 5.76438,13.45987 5.81358,24.31909 0.0124,2.76872 0.15488,3.19823 3.88419,11.71739 l 3.8712,8.84331 1.42234,0.14078 1.42236,0.14083 -0.21838,2.51216 c -0.19775,2.27485 -0.12283,2.64813 0.79292,3.9507 0.96423,1.37156 4.09797,2.98108 4.60197,2.3636 0.11886,-0.1456 0.80878,-1.25963 1.5331,-2.47559 z M 320.6863,621.28492 c -0.48184,-1.96179 -1.39041,-7.68027 -2.01902,-12.70778 -1.56266,-12.49762 -2.46626,-16.27611 -4.38054,-18.31754 -1.23259,-1.31447 -14.28446,-8.50664 -19.92074,-10.97724 l -5.37418,-2.35569 -9.14407,1.50103 c -8.76777,1.43925 -9.30046,1.47802 -12.94397,0.9418 l -3.7999,-0.55924 -1.55435,1.20742 c -1.11047,0.86266 -32.94632,26.41049 -33.48857,26.87415 -0.0347,0.0297 -0.18622,0.63189 -0.33653,1.33816 -0.27116,1.27402 -0.22746,1.25575 5.56018,-2.32229 3.20841,-1.98347 5.93297,-3.60634 6.05458,-3.60634 1.01724,0 -0.89476,1.73673 -7.79338,7.07893 l -8.01449,6.20636 -0.63827,2.68249 c -0.35104,1.47537 -0.54638,2.79086 -0.43408,2.92329 0.1123,0.13242 1.68602,-0.38102 3.49715,-1.14106 5.21255,-2.18735 17.25041,-5.46657 19.18578,-5.22639 1.47376,0.18292 1.95397,-0.0274 4.62228,-2.02521 l 2.97764,-2.22935 9.81341,0.26893 c 18.61566,0.51012 34.21462,3.2389 47.12118,8.24306 2.99024,1.15936 6.78663,2.92183 8.43643,3.91657 1.6498,0.99474 3.10086,1.81854 3.22458,1.8307 0.12372,0.0119 -0.16929,-1.583 -0.65112,-3.54476 z m 231.43454,-8.18063 c 7.22252,-2.21847 14.44662,-9.44315 17.33507,-17.3365 2.32174,-6.34464 1.95114,-9.78972 -0.99258,-9.22641 -2.09588,0.40109 -3.93663,2.17439 -6.80951,6.55997 -1.48264,2.26331 -2.85054,4.18142 -3.03979,4.26247 -0.18923,0.0811 -0.34409,-0.45436 -0.34409,-1.18982 0,-0.73549 -0.14503,-1.44296 -0.32227,-1.57217 -0.71991,-0.52466 -4.36856,2.24201 -7.26305,5.50735 -1.69277,1.90967 -3.09696,3.43289 -3.12044,3.38487 -3.36543,-6.88831 -6.51333,-10.76837 -10.93969,-13.48396 -3.01743,-1.85127 -7.21772,-3.33013 -8.19812,-2.8865 -0.29016,0.13131 -0.52758,0.0504 -0.52758,-0.17974 0,-0.6598 -1.77878,-1.44479 -3.27387,-1.44479 -0.75012,0 -2.34509,0.32469 -3.54441,0.72153 -1.76127,0.58277 -2.18524,0.90163 -2.20469,1.65812 -0.0131,0.51513 -0.24088,5.31404 -0.50585,10.66423 -0.26495,5.35021 -0.43371,9.79773 -0.37503,9.88333 0.0586,0.0857 3.11252,0.70326 6.78631,1.37253 4.66009,0.84891 7.22596,1.53485 8.48679,2.26874 l 1.80718,1.05201 0.71542,-1.09799 c 0.85271,-1.30876 0.94766,-3.96649 0.20236,-5.66604 -0.69846,-1.59285 -3.79921,-4.98603 -5.76875,-6.31288 -0.86337,-0.58162 -1.57109,-1.1885 -1.57268,-1.3486 -0.008,-0.8319 5.99783,1.99398 7.87112,3.70339 2.23689,2.04118 3.32531,6.37718 2.215,8.82376 -0.58538,1.2898 -0.0975,1.66573 3.08087,2.37382 3.12688,0.69663 7.04413,0.51004 10.30228,-0.49072 z m -326.32551,-10.26128 1.26906,-2.55347 -1.39336,-15.90694 c -1.2496,-14.2654 -1.41666,-17.64076 -1.61896,-32.70918 -0.18701,-13.92851 -0.35347,-17.67198 -0.97329,-21.88719 -0.41125,-2.79669 -1.58887,-11.35259 -2.61694,-19.01311 -1.02808,-7.66051 -2.53564,-17.21128 -3.35014,-21.22394 -1.08948,-5.3673 -1.64758,-9.45787 -2.1114,-15.47578 -0.58349,-7.57017 -4.08357,-40.07715 -4.55854,-42.33733 -0.11499,-0.54719 -0.31732,-0.99075 -0.44964,-0.98571 -0.1323,0.005 -2.25329,0.40059 -4.71327,0.87898 -2.46001,0.4784 -4.49721,0.82249 -4.52713,0.76463 -0.03,-0.0579 -0.42669,-0.74131 -0.88172,-1.51878 l -0.82733,-1.41358 -4.48806,3.33181 c -3.90029,2.89547 -4.48823,3.48594 -4.48938,4.50874 -0.005,4.75983 -1.4034,24.12505 -2.81793,39.03345 -0.93183,9.82097 -1.8808,21.96775 -2.10882,26.99282 -0.3928,8.65627 -0.36138,9.78348 0.59725,21.44502 1.27145,15.46664 3.81495,32.72744 5.60283,38.02197 2.08803,6.18346 9.58514,19.17963 16.17867,28.04549 3.11639,4.19045 7.78922,9.1225 10.67076,11.26284 1.54648,1.1487 5.44928,3.2573 6.07503,3.28228 0.14478,0.006 0.83433,-1.13858 1.53231,-2.54302 z m 10.20123,-13.11445 c 2.28669,-4.2932 3.99132,-8.20177 5.62182,-12.89044 2.28773,-6.57868 2.33209,-6.7834 1.98466,-9.16155 -0.34004,-2.32742 -0.41279,-2.44512 -1.68479,-2.72657 -4.50403,-0.99641 -9.10711,-5.36925 -9.10711,-8.65162 0,-0.55138 1.11187,-2.39808 2.66543,-4.42705 l 2.66544,-3.48107 -0.43543,-2.14035 c -0.38234,-1.87952 -0.84569,-2.58207 -3.80201,-5.76468 -1.85163,-1.99342 -3.50939,-3.62435 -3.68391,-3.62435 -1.18713,0 -1.17214,1.34661 0.14014,12.58194 1.20201,10.29131 1.3256,12.30374 1.32662,21.60209 9.9e-4,12.52734 0.39793,25.66911 0.76017,25.19479 0.14695,-0.19233 1.74397,-3.12239 3.54897,-6.51114 z m 319.08628,5.05598 c 2.49876,-1.55005 2.97315,-1.61514 3.63616,-0.49889 0.45466,0.76552 0.63422,0.60789 2.39223,-2.10029 1.11033,-1.71043 2.31679,-4.26765 2.90144,-6.14998 l 1.00084,-3.22206 -1.55074,-3.63151 c -0.8529,-1.99731 -4.05942,-10.28283 -7.12563,-18.41229 -3.06621,-8.12944 -5.63146,-14.84743 -5.70053,-14.92888 -0.069,-0.0814 -0.75522,0.16219 -1.52484,0.54143 -0.76963,0.37921 -2.77806,0.89543 -4.46324,1.1472 -3.03023,0.45268 -3.18872,0.42567 -14.3944,-2.45234 -6.23172,-1.60055 -11.57849,-2.91007 -11.88176,-2.91007 -1.0535,0 -1.09483,4.13934 -0.23262,23.295 0.4727,10.50191 0.7538,19.41901 0.6247,19.81582 -0.28552,0.87739 -0.13767,0.83502 5.66317,-1.62342 l 4.21538,-1.78647 3.65864,1.65321 c 6.4266,2.90401 11.65971,6.29984 14.1573,9.18686 2.17923,2.51902 3.02062,2.98472 6.05492,3.35118 0.23682,0.0287 1.39287,-0.54493 2.56898,-1.2745 z M 411.37685,580.30362 c 3.00172,-5.2894 6.91585,-12.11648 8.69804,-15.17126 2.5979,-4.45301 3.18176,-5.74059 2.94502,-6.49443 -0.27544,-0.877 -1.52175,-0.10195 -18.52966,11.52339 -10.02887,6.85503 -18.04347,12.5545 -17.81024,12.66552 1.50316,0.71551 18.1597,7.01416 18.64301,7.04984 0.37791,0.0279 2.59377,-3.47604 6.05383,-9.57306 z m -21.33224,-6.4477 c 4.68972,-2.31026 7.51902,-4.15223 16.18207,-10.53516 8.85703,-6.52578 10.85046,-7.81744 12.7484,-8.26036 2.27821,-0.53165 2.9436,-1.13189 3.99973,-3.60806 0.25932,-0.60798 1.95023,-3.91998 3.75759,-7.35998 3.86226,-7.35113 7.8032,-15.61304 7.8032,-16.35883 0,-0.28905 -4.14135,2.73182 -9.20302,6.713 -20.33225,15.9921 -20.79693,16.29945 -34.75183,22.98437 l -12.4755,5.97622 -12.60952,1.85567 -12.60952,1.85568 9.5124,4.32672 c 8.7408,3.97574 9.80923,4.35764 13.17194,4.70787 8.008,0.83407 8.17034,0.80828 14.47406,-2.29714 z m -74.36896,-7.40512 c 0,-0.30132 0.41879,-0.36881 1.13597,-0.18305 0.62479,0.16183 3.14781,0.15263 5.60671,-0.0203 l 4.47077,-0.31469 -0.89356,-2.04471 c -0.49144,-1.1246 -1.99282,-4.13393 -3.33637,-6.68743 l -2.44282,-4.64274 2.32281,-0.37323 c 3.84448,-0.61775 26.93409,-13.21018 36.63099,-19.97752 4.22759,-2.95039 9.88,-6.7172 12.56091,-8.37063 10.74759,-6.62864 24.15736,-16.57051 36.93282,-27.38158 11.7227,-9.9202 13.21147,-11.33787 22.30967,-21.24476 5.36183,-5.83839 10.59545,-11.66616 11.63031,-12.95059 1.03485,-1.28443 2.06,-2.33534 2.2781,-2.33534 0.53713,0 1.78696,1.72049 2.31523,3.18702 0.78751,2.18638 3.89294,20.42802 3.8986,22.90074 0.0176,7.77446 -7.90429,19.60624 -21.72523,32.4472 -6.55154,6.08703 -39.09104,33.43522 -42.16742,35.44008 -1.80157,1.17408 -3.2042,2.21883 -3.11699,2.32168 0.0871,0.10288 2.0674,-0.55797 4.4004,-1.46843 4.08883,-1.59577 4.867,-2.13128 21.57222,-14.84539 9.53173,-7.25443 18.36761,-13.80731 19.63534,-14.56201 1.26771,-0.75464 5.53313,-4.50925 9.47872,-8.34357 7.32591,-7.1194 11.52051,-10.90693 22.25111,-20.092 l 6.07847,-5.20296 6.22455,-9.10962 6.22452,-9.10957 -0.21823,-2.69156 c -0.12006,-1.48035 -0.80604,-11.84437 -1.52449,-23.03114 -0.71841,-11.18679 -2.14427,-31.68115 -3.16856,-45.54304 -1.83262,-24.80064 -1.92096,-25.63514 -5.52617,-52.21702 l -3.66378,-27.01359 -3.40164,-2.66942 c -3.23315,-2.53722 -4.08751,-2.93747 -17.25085,-8.08177 -12.30624,-4.80933 -14.25851,-5.70193 -17.52248,-8.01158 -2.02027,-1.42967 -3.89998,-2.59933 -4.17718,-2.59933 -1.39299,0 -12.97944,9.98972 -27.11302,23.37655 -17.18169,16.27389 -29.12727,28.7859 -31.19319,32.67228 -1.95797,3.6833 -10.34301,16.00005 -10.89612,16.00528 -0.30934,0.003 -0.81321,-0.18167 -1.11969,-0.41019 -0.46361,-0.34567 -0.48155,-0.6521 -0.10672,-1.82306 0.24779,-0.77415 5.15964,-12.27611 10.91524,-25.55991 9.06636,-20.92503 11.81878,-26.81048 20.59827,-44.04484 l 10.13358,-19.89246 -4.18112,-4.76013 c -2.2996,-2.61807 -4.45667,-4.95058 -4.79345,-5.18334 -0.50202,-0.34696 -0.90732,0.1401 -2.24971,2.70361 -0.90057,1.71975 -1.81767,3.35583 -2.03803,3.63575 -0.85453,1.08552 -10.34617,16.7625 -10.57041,17.45875 -0.28613,0.88841 -15.51828,25.91276 -16.19336,26.60349 -0.11884,0.1216 -1.30138,1.99911 -2.62786,4.17224 -4.12398,6.75627 -16.49825,21.11139 -28.32536,32.85963 -5.77429,5.73577 -11.8485,11.94944 -13.4983,13.80814 -2.40687,2.71167 -5.46605,5.20128 -15.48115,12.59878 -6.86484,5.07062 -12.34853,9.35741 -12.18597,9.52621 0.16259,0.1688 3.50143,1.86163 7.41968,3.76187 3.91826,1.90023 7.28041,3.61551 7.47144,3.81173 0.20587,0.21144 0.0913,0.6904 -0.2812,1.17581 -0.34572,0.45048 -0.62857,1.05211 -0.62857,1.33695 0,0.70017 0.26641,0.72252 -12.31734,-1.03333 l -11.11719,-1.55121 -14.9981,1.5356 c -8.24895,0.84458 -19.04759,2.22798 -23.99697,3.07422 -7.95134,1.35953 -31.07084,6.09236 -32.9527,6.74582 -0.66256,0.23005 -0.69143,0.60901 -0.46133,6.05536 0.13501,3.19547 0.34515,6.84679 0.46696,8.11405 l 0.22147,2.3041 2.97518,-2.6708 2.97518,-2.67079 4.75323,0.7228 c 2.61429,0.39755 4.81348,0.79384 4.8871,0.88066 0.14875,0.17543 3.21543,-0.92769 4.38654,-1.5779 0.41244,-0.229 6.01304,-2.47608 12.44577,-4.99352 9.33271,-3.65235 12.0732,-4.90381 13.56336,-6.19377 2.49748,-2.16196 7.59546,-4.93738 10.77655,-5.86694 3.14786,-0.91984 10.91752,-1.03422 14.20785,-0.20917 4.27428,1.07177 8.26693,2.76583 13.12334,5.56816 4.80592,2.77319 12.93586,8.78748 12.93586,9.56958 0,0.22087 -1.09674,0.40158 -2.43718,0.40158 -1.34046,0 -2.4372,0.105 -2.4372,0.23332 0,0.12833 0.83967,2.40075 1.86592,5.04984 8.47828,21.88509 12.49575,42.21027 11.89068,60.15731 -0.22695,6.73161 -1.05471,13.00205 -2.00138,15.16088 -1.07307,2.44708 -7.32853,9.35882 -10.63037,11.74568 -4.44391,3.21242 -8.14166,4.54975 -13.32395,4.81868 -4.78944,0.24849 -8.21616,-0.42855 -12.86196,-2.54135 -6.1816,-2.8112 -11.39853,-7.24218 -19.00278,-16.14001 -10.30555,-12.05868 -16.61882,-24.00162 -17.31145,-32.74842 -0.12395,-1.56525 -0.29177,-2.84589 -0.37291,-2.84589 -0.0811,0 -1.19569,0.78709 -2.47672,1.74909 -1.32949,0.99839 -2.39,1.54223 -2.47092,1.26711 -0.078,-0.26509 0.14818,-2.1113 0.50255,-4.10268 l 0.64432,-3.6207 -1.15871,-2.15462 c -0.6373,-1.18506 -1.15873,-2.55289 -1.15873,-3.03964 0,-1.81258 3.50542,-13.06397 5.8006,-18.61823 2.71,-6.55815 5.64948,-11.93132 8.88957,-16.24957 1.23168,-1.64154 2.08251,-2.98462 1.89073,-2.98462 -0.1918,0 -4.85628,2.58667 -10.36555,5.74815 l -10.01683,5.74815 -4.51356,0 c -4.11081,0 -4.49155,0.0677 -4.26663,0.75888 0.13581,0.41738 0.98927,3.84969 1.89654,7.62735 1.39057,5.78987 2.01077,9.85424 3.94949,25.88158 2.07303,17.13754 2.59701,20.4743 5.31179,33.82565 l 3.01189,14.81254 4.21343,10.21796 c 2.31739,5.61988 4.77313,11.19116 5.45719,12.38063 8.593,14.94165 23.3451,25.44383 39.92237,28.4212 2.78179,0.4996 13.12371,1.61031 20.62239,2.2148 7.03039,0.56676 18.18519,0.57362 18.18519,0.0111 z m 10.80447,-63.47039 -0.98081,-4.7077 3.03993,0.29895 c 1.67195,0.16444 3.10878,0.38022 3.19295,0.47944 0.22542,0.26583 -3.48487,8.32788 -3.90942,8.49474 -0.19901,0.0782 -0.80321,-1.97621 -1.34265,-4.56543 z m 87.24561,-50.42899 c -12.18374,-1.793 -22.23832,-9.94009 -30.53793,-24.7445 -5.61331,-10.01273 -10.69126,-24.8474 -13.36838,-39.05423 l -0.62166,-3.29905 -1.08282,2.52526 c -0.59555,1.38889 -1.22588,2.52525 -1.40076,2.52525 -0.17487,0 -0.78567,-0.79589 -1.35733,-1.76867 -0.57164,-0.97276 -1.2695,-1.76865 -1.5508,-1.76865 -0.28128,0 -0.51143,-0.28967 -0.51143,-0.64373 0,-0.35404 1.97298,-7.2684 4.38442,-15.36524 l 4.38442,-14.72152 3.69669,-5.16815 3.69666,-5.16814 14.13484,-9.8485 c 7.77415,-5.41669 14.64105,-9.91885 15.25971,-10.00483 0.9412,-0.1308 32.79335,4.77198 35.31295,5.43548 1.08699,0.28624 8.65942,8.87828 10.84112,12.30088 0.95102,1.49193 2.13708,3.66188 2.63564,4.82212 1.0523,2.4489 1.55911,5.81806 0.94276,6.26728 -0.22663,0.16517 -1.46164,-0.1996 -2.74444,-0.81063 -1.28278,-0.61101 -2.36355,-1.06813 -2.40176,-1.01581 -0.0383,0.0524 1.26465,8.25308 2.8952,18.22392 l 2.96461,18.12878 -0.60912,11.27522 c -0.65871,12.1936 -1.27513,16.19227 -3.51623,22.80913 -5.04394,14.89218 -16.49236,25.31734 -31.48551,28.67132 -2.84758,0.637 -7.16163,0.80895 -9.96085,0.39701 z m 9.03786,-5.67177 c 9.69973,-2.90161 18.132,-8.3085 24.29848,-15.58055 3.08266,-3.63537 6.38322,-9.06271 7.73676,-12.72213 2.25972,-6.10937 2.56033,-7.85564 3.16591,-18.39072 l 0.58362,-10.15253 -3.01298,-18.63693 c -1.6571,-10.25031 -3.07666,-18.71207 -3.15455,-18.80391 -0.24463,-0.28848 -32.65053,-15.94729 -32.75855,-15.82921 -0.0566,0.0617 0.76618,2.37912 1.82816,5.14972 6.21854,16.2236 10.9485,33.39336 13.14227,47.70643 1.20415,7.85653 1.20651,20.65803 0.004,25.86667 -1.18942,5.15521 -2.83355,8.77623 -5.45033,12.00376 -2.16975,2.67618 -2.4446,2.87029 -4.92272,3.47716 -3.60019,0.88166 -6.28878,0.81734 -9.77402,-0.23383 -12.88541,-3.88628 -25.46812,-24.37922 -34.64063,-56.41779 l -2.20167,-7.69014 -1.30291,2.76432 c -0.71673,1.52037 -2.44297,5.45047 -3.8362,8.73355 l -2.53315,5.96923 0.6486,3.7584 c 0.84809,4.91438 4.23024,16.85045 6.20184,21.88719 9.26648,23.67247 23.26644,36.55611 41.48445,38.17654 0.43758,0.0389 2.45928,-0.42693 4.49276,-1.03523 z m 2.13042,-23.4555 c 4.00767,-3.21147 5.57208,-11.45142 4.23535,-22.30803 -1.44811,-11.76083 -11.02976,-51.21968 -14.01175,-57.70258 -0.86394,-1.87827 -1.2026,-2.23188 -2.25119,-2.35076 -1.98008,-0.22449 -4.62612,1.08125 -8.83688,4.36074 -7.2869,5.67533 -19.36263,18.20361 -19.36263,20.08831 0,1.76701 2.58589,13.25325 4.35926,19.3634 6.40572,22.07089 15.47056,35.61678 26.09046,38.98778 1.09104,0.34632 3.42088,0.64277 5.17749,0.65877 2.8277,0.0258 3.35496,-0.10008 4.59989,-1.09763 z m -71.53563,140.30274 c 4.74315,-1.10329 11.99847,-2.55143 16.12296,-3.21804 6.23858,-1.00826 7.74282,-1.39502 8.94929,-2.30093 7.72128,-5.79759 43.55066,-36.50142 49.91825,-42.77715 11.69658,-11.52788 18.94283,-20.69291 19.89394,-25.16169 0.28357,-1.33238 0.22097,-1.34914 -2.53392,-0.67802 -1.83751,0.4476 -2.31174,0.86337 -6.30454,5.52706 -4.24768,4.96141 -4.34552,5.04303 -6.04344,5.04303 l -1.72583,0 -2.36989,4.23829 -2.36993,4.2383 -1.71038,-0.30081 c -0.94072,-0.16546 -1.92561,-0.44191 -2.18868,-0.61435 -0.33939,-0.22249 0.57672,-2.10391 3.1553,-6.47993 1.99846,-3.3915 3.68185,-6.23961 3.74084,-6.32911 0.059,-0.0895 1.58273,0.16006 3.38612,0.55456 1.80333,0.39446 3.3959,0.56717 3.53903,0.38376 0.14311,-0.18337 0.80565,-1.82574 1.47231,-3.64968 0.66664,-1.82393 1.2894,-3.41573 1.38395,-3.53733 0.0946,-0.12158 2.09435,-0.3321 4.44395,-0.46776 2.34963,-0.13566 4.37422,-0.36718 4.49909,-0.51441 0.42355,-0.49948 -0.96011,-5.74709 -2.32009,-8.79909 -0.74448,-1.67073 -2.3033,-4.23233 -3.46399,-5.69244 l -2.11039,-2.65475 -9.93625,10.66444 c -13.44906,14.43467 -18.82955,19.64757 -29.5995,28.67734 -8.43793,7.07456 -10.77955,8.74488 -29.53093,21.06503 l -20.36634,13.3812 -10.58899,4.85112 c -5.82396,2.66812 -11.72791,5.31585 -13.11993,5.88386 -1.392,0.568 -2.53092,1.26442 -2.53092,1.54762 0,0.28317 0.52883,1.03962 1.17515,1.68094 1.16467,1.15568 1.18221,1.15847 1.96849,0.31486 1.46208,-1.56876 3.51653,-2.01278 9.11635,-1.97037 8.72913,0.0661 10.3015,0.78838 5.70825,2.62212 -3.66665,1.46384 -7.18401,2.04179 -11.2529,1.84905 l -3.69014,-0.17479 0.64338,1.29533 c 1.56852,3.1579 3.5787,3.79992 11.32951,3.61846 3.78121,-0.0886 6.35339,-0.49735 13.31082,-2.11572 z m -105.31184,-5.23621 c 1.02281,-0.74544 3.13777,-4.63482 2.7115,-4.98638 -0.0752,-0.062 -0.83418,-0.74647 -1.68673,-1.52106 -1.37119,-1.24584 -1.60561,-1.32941 -2.0314,-0.72439 -0.83153,1.18155 -1.79147,1.59139 -2.5726,1.09842 -0.65331,-0.41231 -1.71018,-3.07282 -1.98442,-4.99554 -0.0762,-0.53453 -1.17471,0.71242 -3.54709,4.02663 l -3.43661,4.8009 2.15768,1.21618 c 4.44036,2.50274 7.9428,2.86858 10.38967,1.08524 z m 299.5719,-12.57571 c 6.17257,-2.05974 6.28289,-7.38169 0.32673,-15.76377 -3.92961,-5.53012 -17.80304,-20.48485 -25.85815,-27.87353 -10.30793,-9.45513 -9.87632,-9.12316 -12.29749,-9.45871 l -2.0832,-0.28874 -0.39716,1.73926 c -1.01766,4.45672 -1.25628,3.9622 3.80265,7.88142 10.06066,7.79413 21.45332,18.61353 25.25539,23.98451 2.53733,3.58437 3.51079,5.89641 3.5218,8.3648 0.006,1.51795 -0.19359,2.04018 -1.14535,2.98461 -0.63451,0.6296 -1.6047,1.14848 -2.15599,1.15307 -0.55128,0.004 -5.0647,-1.31485 -10.02982,-2.93217 l -9.02748,-2.94057 -0.87468,-2.17259 c -1.56592,-3.88946 -4.18167,-5.40192 -6.30671,-3.64666 l -0.84379,0.69693 1.74897,3.91175 1.74897,3.91171 9.04138,3.6567 c 4.97276,2.0112 11.31922,4.61356 14.10323,5.783 5.52388,2.32035 7.12009,2.46078 11.4707,1.00898 z m -9.45904,-9.08619 c 3.57136,-3.3128 -2.69095,-12.41335 -17.57219,-25.53646 -6.83265,-6.02544 -13.99544,-11.67308 -14.41599,-11.36662 -0.25124,0.18315 -2.9863,5.76442 -5.10958,10.42697 -0.0608,0.13353 1.69459,3.8467 3.90097,8.25147 4.00948,8.00465 4.01198,8.0084 4.94367,7.40025 0.51272,-0.33467 1.64338,-0.61553 2.51266,-0.62416 1.94181,-0.019 3.77511,1.68912 4.99081,4.65056 0.68519,1.66909 1.05148,2.04856 2.36895,2.45402 0.85711,0.2638 4.67991,1.53242 8.49503,2.81912 3.81515,1.28674 7.37788,2.36245 7.91718,2.39039 0.53932,0.0279 1.42514,-0.36151 1.96849,-0.86554 z M 287.45839,514.50049 c 5.72697,-1.38456 11.92931,-5.07123 15.75558,-9.36523 1.80511,-2.02579 1.89358,-2.24077 2.50201,-6.07951 3.01658,-19.03253 -1.20354,-44.77782 -11.70149,-71.38619 l -1.47354,-3.73487 -7.06124,-2.78005 c -3.88369,-1.52903 -7.11474,-2.71693 -7.18016,-2.63981 -0.0653,0.0772 1.40121,3.20783 3.25914,6.95709 6.7583,13.63811 12.90783,28.81933 15.48561,38.22895 2.18711,7.9836 2.97765,13.34419 2.80361,19.01125 -0.13246,4.31287 -0.28354,5.2171 -1.2994,7.77706 -1.34541,3.39049 -3.00158,5.48369 -5.87006,7.41905 -1.13854,0.76818 -2.13877,1.63907 -2.22271,1.93536 -0.10975,0.38708 -1.51541,0.53574 -4.9954,0.52826 -4.08433,-0.009 -5.22444,-0.16984 -7.27994,-1.02844 -11.82492,-4.93938 -21.76288,-22.20713 -28.28508,-49.14694 -1.08924,-4.49903 -2.37016,-10.46827 -2.8465,-13.26496 -0.47633,-2.79669 -0.90556,-5.14853 -0.95386,-5.22629 -0.17195,-0.27687 -2.99244,1.68277 -4.1618,2.89158 -2.93238,3.03129 -5.57357,9.16426 -7.19411,16.70509 -1.21991,5.67657 -2.04008,13.33939 -1.82206,17.02336 0.38873,6.56841 3.73699,14.61746 9.74847,23.43477 4.32994,6.3509 14.11382,17.5112 16.35494,18.65583 4.45465,2.27512 10.67835,4.14084 16.53533,4.95694 2.35566,0.32822 8.92959,-0.15356 11.90266,-0.8723 z m 172.98032,-6.856 c 10.62665,-3.65206 13.40591,-4.38755 17.70249,-4.68487 3.33486,-0.23076 4.11068,-0.41802 4.4033,-1.06279 0.39733,-0.87548 0.88477,-0.46109 -6.69264,-5.69005 -3.08156,-2.12651 -4.76377,-3.05076 -5.06188,-2.78113 -1.80115,1.62943 -17.01845,15.76982 -17.30053,16.0762 -0.62545,0.67943 0.24437,0.44695 6.94926,-1.85736 z m 43.7873,-13.96645 c 3.53415,-8.0647 9.04576,-20.98766 12.24805,-28.71763 l 5.82233,-14.05449 0.42645,-12.62481 0.42645,-12.62481 -2.73051,-17.68661 c -2.43517,-15.77337 -3.19489,-19.69554 -7.02334,-36.25757 l -4.29283,-18.57095 -5.69378,-13.78056 -5.69372,-13.78058 -3.1871,-0.70104 c -5.27495,-1.16031 -23.22508,-3.96812 -23.476,-3.67218 -0.12857,0.15158 0.12468,4.44242 0.56272,9.53519 0.58407,6.78991 1.38843,12.604 3.0157,21.79863 4.06371,22.96055 4.41451,25.97903 5.20844,44.81709 0.5519,13.09556 0.62186,17.81721 0.31714,21.40289 -0.33524,3.945 -0.27357,5.77233 0.43276,12.8228 0.45303,4.5222 1.17152,11.90321 1.59662,16.40224 1.44275,15.26917 2.1645,20.97937 2.90623,22.99259 1.25666,3.41083 5.16902,16.2938 6.91544,22.77152 2.71075,10.05483 4.83897,15.84296 5.50435,14.97034 0.15889,-0.20838 3.18049,-6.97732 6.7146,-15.04206 z m -14.94734,10.20287 c 0,-0.90347 -6.13842,-27.90124 -6.42414,-28.25449 -0.23062,-0.28511 -0.83048,-0.1316 -1.72755,0.44217 -1.61729,1.03426 -3.10183,4.10687 -3.35571,6.94518 l -0.16928,1.89268 2.63568,1.89579 c 4.77431,3.43399 7.29916,7.37514 6.65721,10.39146 -0.12787,0.60063 -1.00113,2.10033 -1.9406,3.33255 l -1.70818,2.24045 1.42275,0.27132 c 0.7825,0.14922 2.01329,0.43778 2.73507,0.64127 1.74213,0.49111 1.87475,0.5054 1.87475,0.20162 z m -3.12998,-7.15512 c 0.34123,-1.59024 -0.55253,-3.47833 -2.78606,-5.88557 -2.05746,-2.21746 -7.47602,-6.27031 -8.07073,-6.03652 -0.17105,0.0672 -0.94796,1.80915 -1.7264,3.87092 l -1.41537,3.74864 5.84586,4.11634 5.84587,4.1163 1.04575,-1.46331 c 0.57518,-0.80483 1.14263,-1.91489 1.26108,-2.4668 z M 182.14601,476.61585 c 1.28828,-10.51801 2.4406,-19.88971 2.56069,-20.82601 l 0.21836,-1.70235 -1.21466,0.74071 c -1.83354,1.11813 -9.03537,4.34338 -17.42849,7.80513 -4.13141,1.704 -7.56768,3.16425 -7.63616,3.24501 -0.0685,0.0808 0.0555,0.93491 0.27541,1.89813 l 0.39988,1.75131 6.56859,2.78014 c 3.61275,1.5291 6.63092,2.7011 6.7071,2.60444 0.0762,-0.0967 0.59952,-2.76238 1.16301,-5.92386 0.56349,-3.16149 1.15135,-6.02636 1.30636,-6.36639 0.72126,-1.58218 3.2175,9.52256 2.79832,12.4485 -0.614,4.28569 -3.84052,5.39584 -9.36366,3.22171 -3.2994,-1.29881 -8.10959,-4.19562 -12.7865,-7.70039 l -3.04376,-2.28091 -11.36555,3.77127 c -6.25104,2.0742 -11.43282,3.85059 -11.51504,3.94756 -0.29122,0.34343 7.92375,6.45376 11.90687,8.8564 11.05221,6.66674 23.91436,10.62819 35.08313,10.80528 l 3.02378,0.048 2.34232,-19.12366 z m 107.47464,16.48839 c 3.08537,-1.55691 4.87202,-4.69827 5.53202,-9.72654 1.36354,-10.38826 -6.06901,-31.3701 -20.09965,-56.7405 -3.48845,-6.3079 -3.5725,-6.4176 -5.49242,-7.16962 -5.78918,-2.26753 -12.43907,0.77087 -17.16578,7.84323 l -1.69679,2.53886 0.65962,4.75687 c 0.95952,6.91955 3.26525,17.583 5.28314,24.43324 6.23637,21.17096 15.43421,33.29563 26.45358,34.87136 2.8741,0.411 4.51484,0.20814 6.52628,-0.8069 z M 92.578889,478.69031 c 11.053121,-1.08666 12.725291,-1.3712 26.059191,-4.43425 11.55401,-2.65414 15.84346,-3.84951 22.68465,-6.32168 8.09651,-2.9258 41.98938,-16.46036 43.08936,-17.20702 1.0386,-0.70501 1.55698,-3.54829 1.16722,-6.40226 -0.1988,-1.45578 -0.41743,-2.71286 -0.48581,-2.79352 -0.0685,-0.0807 -7.4304,3.52725 -16.36004,8.01754 -8.92963,4.49029 -16.4646,8.16416 -16.74437,8.16416 -0.2837,0 -0.61669,-0.67904 -0.75292,-1.53538 -0.20419,-1.28348 0.7449,-4.74735 5.78491,-21.11339 l 6.02916,-19.57802 2.63792,-14.5586 c 1.45084,-8.00722 2.72384,-14.65994 2.82889,-14.7838 0.31166,-0.36753 3.17683,3.1524 3.17683,3.90281 0,0.37937 -3.60222,14.37057 -8.00493,31.09155 -5.92626,22.50723 -7.84922,30.34243 -7.40531,30.17323 0.32979,-0.12571 6.18247,-2.97903 13.006,-6.34071 l 12.40638,-6.11216 3.53686,-3.52693 c 2.00702,-2.0014 5.28254,-4.66543 7.5728,-6.15908 l 4.03596,-2.63218 -0.10673,-3.09281 -0.10672,-3.09283 -5.46959,-1.37339 c -8.18166,-2.0544 -7.46628,-1.7049 -7.46628,-3.64753 0,-1.24371 0.25478,-1.96303 0.97587,-2.75511 0.53672,-0.58957 3.85575,-4.61494 7.37559,-8.94525 l 6.39974,-7.8733 2.53084,-20.2042 2.53086,-20.20419 3.44523,-11.49631 c 1.89486,-6.32296 5.37726,-18.16194 7.73867,-26.30883 10.70111,-36.91909 10.83975,-37.35369 14.03445,-43.99546 1.7038,-3.54219 4.8653,-11.39199 7.3904,-18.34986 4.21343,-11.6101 4.69884,-12.699 10.7422,-24.09801 8.93347,-16.85034 9.64213,-18.0564 15.97804,-27.19316 3.11987,-4.49904 6.96323,-10.04407 8.54081,-12.32229 1.62717,-2.34983 6.80268,-8.43707 11.96054,-14.06755 l 9.09219,-9.92532 1.31274,0.55979 c 0.72201,0.30788 1.31275,0.6793 1.31275,0.82538 0,0.14607 -1.40904,2.04628 -3.13119,4.2227 -8.5928,10.85934 -21.26632,28.39966 -24.90272,34.46569 -6.95564,11.603 -18.87407,34.56468 -22.83619,43.99545 -1.99235,4.74222 -3.75707,9.02017 -3.92163,9.50656 -1.1753,3.47392 -9.77018,25.12611 -11.32093,28.51966 -1.05576,2.31031 -1.87727,4.20057 -1.82558,4.20057 0.11569,0 -4.2952,15.39025 -7.41345,25.86667 -4.23003,14.21168 -12.04935,46.85933 -14.06341,58.71846 -0.75572,4.44978 -1.32047,8.2496 -1.25499,8.44406 0.0655,0.19444 2.3171,-2.54685 5.00361,-6.09177 l 4.88455,-6.4453 6.17654,-1.05804 6.17654,-1.05804 4.31194,1.01043 c 2.37159,0.55574 5.32434,1.39465 6.56169,1.86425 2.89002,1.09684 32.59931,14.31034 39.95899,17.77216 0.37969,0.1786 2.01353,-0.91297 4.59799,-3.07194 2.20495,-1.84194 6.26291,-4.90581 9.01767,-6.8086 3.94272,-2.72335 6.79443,-5.2294 13.39974,-11.77558 4.61509,-4.57377 9.29764,-9.21432 10.4057,-10.31233 4.72486,-4.68206 21.94051,-24.76696 27.70562,-32.32322 3.44147,-4.51071 9.07429,-11.79751 12.51736,-16.1929 5.87118,-7.49509 6.83563,-8.9923 15.523,-24.09801 5.09458,-8.85852 10.81289,-18.59358 12.70738,-21.63347 2.8348,-4.5487 3.80081,-6.54457 5.45732,-11.27521 1.95759,-5.59047 3.44603,-9.3802 5.64407,-14.37038 0.58916,-1.33755 2.32295,-6.31191 3.85286,-11.05414 2.41496,-7.48537 2.87009,-9.36238 3.45189,-14.2359 0.36862,-3.08753 0.77015,-5.79473 0.89231,-6.016 0.1222,-0.22127 0.86588,-0.54194 1.65264,-0.71261 l 1.43053,-0.31029 -0.12591,7.65279 -0.12588,7.65279 -2.55129,7.07464 c -1.40322,3.89106 -4.92688,13.3898 -7.83038,21.10832 l -5.27909,14.03367 2.56345,6.7481 c 1.40993,3.71146 2.67521,6.90621 2.81173,7.09945 0.13655,0.19325 1.46348,-2.04521 2.94873,-4.97435 2.15985,-4.2596 2.86581,-5.32294 3.52655,-5.31182 0.45437,0.007 6.47853,0.90769 13.38704,2.00011 6.9085,1.09242 17.20095,2.38754 22.8721,2.87804 l 10.31121,0.89182 6.46793,3.80175 c 3.55735,2.09096 6.46793,3.94574 6.46793,4.12172 0,0.17599 -1.30485,0.45941 -2.89967,0.62983 -5.75825,0.61534 -7.47899,1.30237 -15.13761,6.04402 -7.41229,4.58914 -12.88657,8.80707 -11.91938,9.18396 0.28759,0.11207 6.42838,2.66606 13.64622,5.67554 8.69612,3.62585 16.03263,6.36142 21.74726,8.10889 8.06353,2.46575 9.6834,2.79791 24.92871,5.11173 l 16.30481,2.47462 7.87962,-1.8441 c 4.33377,-1.01425 9.47138,-2.26946 11.41681,-2.78936 l 3.5372,-0.94529 -2.03739,-0.72517 c -1.61408,-0.57452 -4.29662,-2.73695 -12.9119,-10.40851 -9.19117,-8.18438 -13.0219,-11.98731 -24.74687,-24.56727 -7.62978,-8.18617 -14.94351,-16.40992 -16.25272,-18.275 l -2.38039,-3.39106 0.85219,-1.06974 c 0.46873,-0.58834 1.04841,-1.06973 1.28823,-1.06973 0.23983,0 1.37855,0.7959 2.53052,1.76867 1.15192,0.97276 2.27179,1.76866 2.4886,1.76866 1.13276,0 9.03717,-2.86707 9.03656,-3.27772 0,-0.26438 -0.75455,-2.73367 -1.67591,-5.48733 -0.92134,-2.75366 -2.42696,-7.84939 -3.34585,-11.32386 -1.2357,-4.67231 -2.69107,-8.72231 -5.5895,-15.55404 -3.78409,-8.91941 -4.02024,-9.6512 -6.87085,-21.29485 l -2.95206,-12.05803 -7.40091,-11.11666 -7.40089,-11.11666 -6.65983,-5.5108 c -3.6629,-3.03094 -10.11875,-7.79139 -14.34635,-10.57876 -10.7556,-7.0915 -10.88626,-7.20065 -16.31626,-13.62985 -13.28078,-15.72468 -30.95521,-28.51406 -49.48791,-35.80986 -14.91466,-5.871483 -28.28376,-9.685724 -40.86983,-11.660296 -9.77011,-1.532772 -16.52245,-1.936854 -28.29076,-1.693002 -11.28485,0.233833 -17.35389,0.858298 -25.11856,2.584528 -2.17713,0.484022 -5.40769,1.152376 -7.17901,1.485241 -4.34468,0.816441 -41.34977,17.546419 -68.02039,30.751959 -17.99343,8.90915 -20.74414,10.41963 -35.65729,19.58002 l -16.15977,9.92614 -17.39849,6.45167 c -9.56916,3.54842 -20.60434,7.76643 -24.52258,9.37337 -3.918257,1.60692 -14.379433,5.49698 -23.247057,8.64456 -12.695984,4.50647 -18.234941,6.23784 -26.059204,8.14565 -5.46493,1.33251 -10.327035,2.52919 -10.804683,2.65928 l -0.868433,0.23654 1.390012,2.96884 c 5.232279,11.17539 11.877827,20.89452 18.344589,26.829 3.666256,3.3645 6.777796,5.48819 16.882869,11.52297 l 5.634294,3.36482 17.185983,2.93624 17.18599,2.93622 3.89513,-1.20813 c 3.57905,-1.11008 3.98277,-1.15469 4.975,-0.5496 1.5592,0.95082 3.41947,2.88572 3.41947,3.55662 0,0.31711 -1.13892,1.20816 -2.53094,1.98013 -2.36828,1.31339 -2.65446,1.63606 -4.45338,5.02175 -1.15646,2.1765 -4.42468,10.48926 -8.20227,20.86262 -3.45389,9.48445 -9.85974,26.29778 -14.23523,37.36297 l -7.95543,20.11852 -1.934143,9.72764 c -5.71374,28.73684 -7.937058,41.89278 -10.386734,61.46099 -2.796685,22.34018 -6.518963,45.21121 -8.923379,54.8285 -0.911997,3.64786 -3.123559,10.88033 -4.914588,16.07214 -1.791031,5.19181 -3.202767,9.49908 -3.137189,9.57172 0.191848,0.21251 11.53004,1.43727 13.992456,1.51146 1.237343,0.0371 7.564659,-0.45472 14.060713,-1.09339 z M 209.18913,406.20037 c 8.35208,-1.85141 20.00566,-4.44918 25.89687,-5.77281 l 10.71126,-2.4066 14.59803,-0.008 14.59801,-0.008 -10.7333,-5.05771 c -10.24406,-4.82715 -11.50391,-5.30041 -27.63924,-10.3826 -9.29825,-2.92871 -17.15123,-5.32493 -17.45107,-5.32493 -0.5022,0 -26.47848,31.89 -26.47848,32.50655 0,0.1503 0.29528,0.17149 0.65617,0.0471 0.3609,-0.12443 7.48969,-1.74102 15.84175,-3.59243 z m 318.93324,-25.59006 c 5.46932,-4.1288 5.76947,-4.43478 8.89253,-9.06506 l 3.23216,-4.79205 3.40484,-13.65958 c 1.87265,-7.51276 3.65028,-14.46306 3.95027,-15.44512 0.46663,-1.52755 5.83156,-12.14352 8.59451,-17.00647 1.645,-2.8953 7.2469,-21.39492 11.83155,-39.07228 3.46644,-13.36586 5.15095,-19.12456 6.96797,-23.82083 2.66276,-6.88227 2.73146,-7.39739 1.84309,-13.82258 -1.24936,-9.03578 -3.65519,-14.8768 -7.09824,-17.23342 -2.03291,-1.39146 -3.79354,-1.72444 -5.84683,-1.10578 -0.928,0.2796 -4.13384,1.16283 -7.12409,1.96273 -4.165,1.11414 -9.12065,3.07214 -21.18481,8.37023 -14.00179,6.149 -17.22398,7.75731 -29.05882,14.50417 -7.32096,4.17357 -14.99811,8.71219 -17.06034,10.0858 -2.06224,1.37362 -4.2979,2.75503 -4.96813,3.06979 -0.67023,0.31476 -1.2186,0.7356 -1.2186,0.9352 0,0.32738 22.84095,24.2131 24.37166,25.48648 0.54874,0.45648 2.06111,-0.7067 10.6356,-8.18006 5.49774,-4.79173 11.09412,-9.63488 12.43638,-10.76258 1.34229,-1.12768 3.7922,-3.57317 5.4442,-5.43443 3.5631,-4.0144 7.26884,-6.94003 10.75533,-8.49119 3.48208,-1.54921 7.2139,-1.39277 9.19066,0.38526 3.17047,2.85171 4.40639,7.86462 4.40639,17.87226 0,5.12579 -0.1145,6.78545 -0.46868,6.79353 -0.25779,0.006 -2.23277,4.83101 -4.38889,10.72251 -6.39269,17.46781 -16.92671,41.92086 -19.71189,45.75799 -0.79982,1.1019 -1.66893,3.27588 -2.54762,6.37264 -2.68458,9.46084 -6.23232,15.75497 -10.00321,17.74694 -2.07185,1.09445 -5.24967,1.15663 -7.27539,0.14237 -0.80502,-0.40305 -1.52587,-0.65944 -1.60196,-0.56975 -0.076,0.0897 1.29971,4.87826 3.05723,10.64127 1.75747,5.763 3.19545,11.08742 3.19545,11.83204 0,1.30195 0.0322,1.32892 0.84364,0.70342 0.46401,-0.35773 3.39081,-2.5733 6.50404,-4.92345 z m -4.91049,-23.79915 c 0.61867,-1.00295 1.29302,-2.09034 1.49857,-2.41643 0.2639,-0.41864 0.11085,-1.17741 -0.521,-2.58182 l -0.89475,-1.98894 1.68682,-1.75092 c 3.0398,-3.1554 3.26227,-8.15185 0.66388,-14.90972 -0.62029,-1.61327 -1.0412,-3.03539 -0.93531,-3.16023 0.45071,-0.53154 3.08506,2.59205 4.0569,4.81039 0.95654,2.1834 1.04457,2.76326 0.93739,6.17363 l -0.1183,3.76389 2.12035,-2.65847 c 1.80329,-2.26093 3.02537,-4.75353 8.17198,-16.6678 l 6.05163,-14.00933 -1.73387,-0.90445 c -2.51814,-1.31356 -4.45864,-3.28301 -6.40666,-6.50225 -2.67179,-4.41541 -5.68461,-13.78947 -5.32002,-16.55282 0.12086,-0.91611 0.335,-0.64173 1.39876,1.7924 3.64882,8.34921 7.97401,13.77143 12.17431,15.26211 l 1.54929,0.54986 5.15155,-13.1684 c 5.63749,-14.41048 5.48972,-13.76578 4.76434,-20.78395 -0.68136,-6.5923 -3.08206,-10.60038 -6.3493,-10.60038 -4.66373,0 -11.32113,5.02082 -19.5954,14.77831 -3.96815,4.67946 -11.9937,12.43848 -16.86865,16.30842 -1.59126,1.26322 -2.89581,2.39625 -2.89895,2.51785 -0.003,0.12159 4.25155,3.71716 9.45487,7.99015 12.21551,10.0314 12.50141,9.84338 5.22126,-3.43358 -2.64102,-4.81644 -4.92883,-9.00587 -5.08402,-9.30986 -0.97833,-1.91626 3.21717,1.38165 6.1349,4.8224 2.74135,3.23275 4.401,7.04807 4.80872,11.05472 0.25414,2.49724 0.54207,3.32245 1.89794,5.44026 1.35358,2.11414 3.1652,5.9935 2.92754,6.269 -0.0393,0.0456 -3.27737,1.46015 -7.19563,3.14339 l -7.12409,3.06043 -9.93625,1.21925 c -5.46492,0.67059 -10.31746,1.30462 -10.78341,1.40896 l -0.84716,0.18971 0.7109,1.64866 c 0.39098,0.90676 2.93746,7.51839 5.65883,14.69253 2.72133,7.17413 5.08375,13.21056 5.24974,13.41429 0.27091,0.3324 7.90348,2.8317 8.82249,2.88892 0.20622,0.0129 0.88114,-0.79724 1.49981,-1.80018 z m -130.03496,-38.00451 20.50566,-20.84847 12.39503,-5.70622 c 12.16874,-5.60206 12.43204,-5.74953 14.42469,-8.07978 l 2.02969,-2.37356 -1.27979,-0.23994 c -1.61228,-0.30229 -34.60741,-3.37002 -36.21234,-3.36687 -1.16803,0.002 -1.42475,0.46366 -16.17847,29.07471 -17.2897,33.52896 -16.71171,32.38861 -16.41608,32.38861 0.12425,0 9.45346,-9.38181 20.73161,-20.84848 z m 150.9109,-90.83446 c 12.71906,-4.47913 23.2033,-8.14386 23.29823,-8.14386 0.0949,0 0.25107,-0.63056 0.34698,-1.40125 0.14548,-1.16883 -0.30472,-2.28725 -2.71423,-6.74302 -1.85737,-3.4347 -4.95463,-10.50661 -8.67555,-19.80854 l -5.78691,-14.46677 -3.76478,-5.20959 c -2.07064,-2.86528 -7.6776,-11.31837 -12.4599,-18.78465 -8.36436,-13.05868 -8.71727,-13.69082 -9.2779,-16.61831 l -0.58279,-3.04324 -12.62803,-9.79622 c -9.90661,-7.68508 -13.88205,-11.05985 -18.4471,-15.65977 -3.20052,-3.22495 -9.51352,-9.233362 -14.02892,-13.35202 l -8.20985,-7.488484 -23.46633,-6.335952 C 426.0469,75.276621 422.6228,74.477479 403.60202,70.830677 l -20.62239,-3.953875 -18.37268,-1.329558 c -10.10496,-0.731255 -26.38727,-1.669383 -36.18291,-2.084728 l -17.81025,-0.755175 -5.29821,3.381447 c -5.20914,3.324588 -5.44867,3.425777 -14.24821,6.01856 -4.92247,1.450416 -9.92568,3.038661 -11.11823,3.529434 -1.19255,0.490773 -9.48951,3.493302 -18.43771,6.672282 l -16.26944,5.779977 -11.74598,8.223336 c -6.46028,4.522833 -12.10501,8.485143 -12.54384,8.805133 -0.54288,0.39587 -0.88139,1.23867 -1.05925,2.63725 -0.25889,2.03598 -0.0317,3.06179 0.47143,2.12772 0.14346,-0.26638 7.93798,-4.26929 17.32118,-8.89537 l 17.06034,-8.411046 20.46751,-5.130581 c 11.25711,-2.821825 21.08139,-5.13058 21.8317,-5.13058 0.7503,0 5.2913,0.587533 10.09111,1.305627 7.94171,1.188155 15.59626,2.854753 52.82757,11.501939 l 9.23003,2.143722 14.76692,9.230609 14.76692,9.23062 10.31121,9.52338 c 5.67115,5.23787 12.59792,11.698 15.39277,14.35586 3.36651,3.2015 9.63063,8.24689 18.56015,14.94917 l 13.47857,10.11669 8.48289,12.1344 8.48285,12.13441 7.1485,24.61843 c 3.93169,13.54013 8.03277,28.00099 9.11352,32.13524 l 1.96501,7.5168 14.64955,-8.54787 14.64952,-8.54787 23.12565,-8.14387 z"
       id="path3349"
       inkscape:connector-curvature="0" />
  </g>
</svg>
